<svg xmlns="http://www.w3.org/2000/svg" xmlns:xlink="http://www.w3.org/1999/xlink" width="460" height="480" viewBox="0 0 460 480"><defs><style>.cls-1{fill:none;}.cls-2{fill:#333e48;}.cls-3{clip-path:url(#clip-path);}.cls-4{fill:#fff;}.cls-5{fill:#00c1de;}.cls-6{fill:#e5eceb;}.cls-7{fill:#7d868c;}</style><clipPath id="clip-path"><rect class="cls-1" x="17.43" y="24.99" width="59" height="17.96" /></clipPath></defs><title>Artboard 3</title><g id="Layer_2"><rect class="cls-2" width="461" height="480" /><g id="Arm_logo_white"><g class="cls-3"><path class="cls-4" d="M30.74,25.43h4v17h-4V40.65A6.54,6.54,0,0,1,25.66,43c-5.25,0-8.23-4.36-8.23-9,0-5.53,3.79-8.92,8.27-8.92a6.18,6.18,0,0,1,5,2.42ZM21.46,34c0,2.94,1.86,5.41,4.72,5.41C28.69,39.4,31,37.58,31,34c0-3.71-2.3-5.49-4.81-5.49-2.86,0-4.72,2.42-4.72,5.45m17.95-8.56h4V27A7,7,0,0,1,45,25.55,4.58,4.58,0,0,1,47.44,25a5.84,5.84,0,0,1,3.11.81l-1.62,3.59a3.55,3.55,0,0,0-2-.61,3.08,3.08,0,0,0-2.46.93,5.46,5.46,0,0,0-1.09,3.91v8.8h-4Zm33.06,7.63a8,8,0,0,0-.36-3,2.24,2.24,0,0,0-2.26-1.49,2.9,2.9,0,0,0-2.34,1.25,6.85,6.85,0,0,0-.77,3.87v8.76H62.79V33.06a7.88,7.88,0,0,0-.37-3,2.24,2.24,0,0,0-2.26-1.49,2.92,2.92,0,0,0-2.34,1.25,6.94,6.94,0,0,0-.77,3.87v8.76H53.1v-17h3.95V27a5.24,5.24,0,0,1,4.2-2,5,5,0,0,1,4.4,2.5,6,6,0,0,1,5-2.5,5.45,5.45,0,0,1,4.84,2.66,8.43,8.43,0,0,1,.89,4.28V42.42h-4V33.06" /></g></g><rect class="cls-5" x="17.43" y="65.56" width="205.23" height="342.8" /><rect class="cls-5" x="237.35" y="65.56" width="205.23" height="342.8" /><rect class="cls-6" x="251.4" y="114.15" width="177.11" height="125.85" /><rect class="cls-7" x="17.49" y="423.05" width="205.17" height="34.01" /><rect class="cls-7" x="237.38" y="423.05" width="205.17" height="34.01" /><rect class="cls-6" x="251.4" y="369.99" width="109.28" height="27.3" /><rect class="cls-6" x="373.22" y="369.99" width="56.55" height="27.3" /><path class="cls-4" d="M70.35,434.65a1,1,0,0,1-.17.21.43.43,0,0,1-.24.06.61.61,0,0,1-.35-.15l-.52-.34a4,4,0,0,0-.74-.33,3,3,0,0,0-1.06-.16,3.29,3.29,0,0,0-1,.16,2.27,2.27,0,0,0-.75.43,1.74,1.74,0,0,0-.45.63,2.06,2.06,0,0,0-.15.79,1.45,1.45,0,0,0,.26.9,2.44,2.44,0,0,0,.7.6,5,5,0,0,0,1,.44l1.14.38a12.08,12.08,0,0,1,1.13.45,3.85,3.85,0,0,1,1,.62,2.72,2.72,0,0,1,.7.93,3.07,3.07,0,0,1,.27,1.35,4.44,4.44,0,0,1-.29,1.59,3.69,3.69,0,0,1-.84,1.29,3.86,3.86,0,0,1-1.36.86,5,5,0,0,1-1.83.32,5.43,5.43,0,0,1-2.28-.46A5.28,5.28,0,0,1,62.7,444l.5-.83a.73.73,0,0,1,.18-.17.45.45,0,0,1,.23-.07.71.71,0,0,1,.43.21,6.61,6.61,0,0,0,.61.44,4.79,4.79,0,0,0,.88.45,3.54,3.54,0,0,0,1.26.2,3.41,3.41,0,0,0,1.11-.17,2.54,2.54,0,0,0,.82-.48,2.07,2.07,0,0,0,.52-.75,2.42,2.42,0,0,0,.18-1,1.6,1.6,0,0,0-.27-1,2.08,2.08,0,0,0-.69-.62,5,5,0,0,0-1-.43l-1.13-.36a11.13,11.13,0,0,1-1.14-.43,3.58,3.58,0,0,1-1-.63,2.87,2.87,0,0,1-.7-1,3.43,3.43,0,0,1-.26-1.44,3.31,3.31,0,0,1,.26-1.32,3.38,3.38,0,0,1,.77-1.14,3.76,3.76,0,0,1,1.25-.79,4.49,4.49,0,0,1,1.7-.3,5.4,5.4,0,0,1,2,.35,4.24,4.24,0,0,1,1.56,1Z" /><path class="cls-4" d="M75.7,448.23a.75.75,0,0,1-.2.28.51.51,0,0,1-.37.11H73.94L75.6,445l-3.76-8.58h1.39a.46.46,0,0,1,.32.1.6.6,0,0,1,.17.23l2.44,5.74a3.17,3.17,0,0,1,.14.4c0,.13.07.27.1.4,0-.13.09-.27.13-.4s.09-.27.14-.41L79,436.75a.5.5,0,0,1,.19-.24.47.47,0,0,1,.28-.09h1.28Z" /><path class="cls-4" d="M87.47,437.92a.38.38,0,0,1-.34.2.56.56,0,0,1-.3-.1l-.42-.22a4.29,4.29,0,0,0-.59-.23,3.2,3.2,0,0,0-.81-.1,2.74,2.74,0,0,0-.73.1,1.69,1.69,0,0,0-.55.29,1.3,1.3,0,0,0-.36.42,1.13,1.13,0,0,0-.12.51.85.85,0,0,0,.21.59,1.72,1.72,0,0,0,.53.4,4.14,4.14,0,0,0,.76.31l.87.27c.29.1.58.21.86.33a3,3,0,0,1,.76.45,2.17,2.17,0,0,1,.54.66,2.1,2.1,0,0,1,.2.94,3,3,0,0,1-.23,1.17,2.55,2.55,0,0,1-.66.93,3.34,3.34,0,0,1-1.08.61,4.47,4.47,0,0,1-1.48.23,4.8,4.8,0,0,1-1.73-.31,4.38,4.38,0,0,1-1.31-.8l.38-.61a.49.49,0,0,1,.17-.18.48.48,0,0,1,.26-.06.61.61,0,0,1,.34.12,4.91,4.91,0,0,0,.44.28,3.28,3.28,0,0,0,.62.28,2.92,2.92,0,0,0,.91.13,2.28,2.28,0,0,0,.82-.13,1.84,1.84,0,0,0,.59-.32,1.32,1.32,0,0,0,.34-.48,1.4,1.4,0,0,0,.12-.58.91.91,0,0,0-.21-.62,1.5,1.5,0,0,0-.53-.42,4.45,4.45,0,0,0-.76-.31l-.88-.28c-.29-.09-.58-.2-.87-.32a3.24,3.24,0,0,1-.76-.47,2.08,2.08,0,0,1-.54-.69,2.27,2.27,0,0,1-.2-1,2.31,2.31,0,0,1,.22-1,2.36,2.36,0,0,1,.63-.85,3,3,0,0,1,1-.58,4.14,4.14,0,0,1,1.37-.22,4.37,4.37,0,0,1,1.62.29,4,4,0,0,1,1.24.78Z" /><path class="cls-4" d="M92.82,445.68a2.21,2.21,0,0,1-1.66-.6,2.42,2.42,0,0,1-.58-1.74v-5.58h-1.1a.34.34,0,0,1-.24-.09.3.3,0,0,1-.1-.26v-.64l1.49-.19.37-2.82a.32.32,0,0,1,.12-.22.36.36,0,0,1,.25-.08h.81v3.14h2.61v1.16H92.18v5.47a1.17,1.17,0,0,0,.28.86,1,1,0,0,0,.72.27,1.46,1.46,0,0,0,.44-.06l.32-.15.23-.15a.31.31,0,0,1,.16-.07c.09,0,.16.05.23.16l.47.76a3.05,3.05,0,0,1-1,.61A3.59,3.59,0,0,1,92.82,445.68Z" /><path class="cls-4" d="M100.38,436.27a3.9,3.9,0,0,1,1.51.28,3.48,3.48,0,0,1,1.2.79,3.75,3.75,0,0,1,.79,1.28,4.91,4.91,0,0,1,.28,1.73,1.07,1.07,0,0,1-.08.5.34.34,0,0,1-.31.13H97.71a5,5,0,0,0,.23,1.5,2.85,2.85,0,0,0,.6,1.07,2.29,2.29,0,0,0,.9.64,3,3,0,0,0,1.16.21,3.49,3.49,0,0,0,1-.14,4.3,4.3,0,0,0,.76-.3c.21-.11.38-.21.52-.3a.66.66,0,0,1,.37-.14.34.34,0,0,1,.3.15l.45.59a2.67,2.67,0,0,1-.71.62,4.52,4.52,0,0,1-.88.44,5.42,5.42,0,0,1-1,.25,5.72,5.72,0,0,1-1,.09,4.68,4.68,0,0,1-1.74-.32,3.73,3.73,0,0,1-1.38-.94,4.09,4.09,0,0,1-.9-1.52,6.11,6.11,0,0,1-.33-2.09,5.2,5.2,0,0,1,.3-1.78,4.14,4.14,0,0,1,.84-1.44,3.84,3.84,0,0,1,1.34-.95A4.42,4.42,0,0,1,100.38,436.27Zm0,1.18a2.48,2.48,0,0,0-1.83.67,3.21,3.21,0,0,0-.83,1.86h5a3.31,3.31,0,0,0-.15-1,2.49,2.49,0,0,0-.45-.8,1.91,1.91,0,0,0-.73-.52A2.3,2.3,0,0,0,100.42,437.45Z" /><path class="cls-4" d="M106.2,445.53v-9.11h1a.41.41,0,0,1,.43.33l.12.94a4.47,4.47,0,0,1,1.12-1,2.73,2.73,0,0,1,1.46-.4,2.12,2.12,0,0,1,1.5.52,2.88,2.88,0,0,1,.82,1.38,2.85,2.85,0,0,1,.5-.85,3.05,3.05,0,0,1,.7-.6,3.09,3.09,0,0,1,.82-.34,3.8,3.8,0,0,1,.89-.11,3.4,3.4,0,0,1,1.28.23,2.6,2.6,0,0,1,1,.67,3,3,0,0,1,.6,1.09,4.74,4.74,0,0,1,.21,1.47v5.8H117v-5.8a2.49,2.49,0,0,0-.47-1.63,1.71,1.71,0,0,0-1.36-.55,2.12,2.12,0,0,0-.75.14,1.76,1.76,0,0,0-.63.41,1.87,1.87,0,0,0-.42.68,2.52,2.52,0,0,0-.16,1v5.8h-1.6v-5.8a2.59,2.59,0,0,0-.44-1.64,1.58,1.58,0,0,0-1.29-.54,2,2,0,0,0-1.1.32,3.63,3.63,0,0,0-.94.87v6.79Z" /><path class="cls-4" d="M132.65,432.64v1.42h-6.19v4.51h5.29V440h-5.29v5.54h-1.75V432.64Z" /><path class="cls-4" d="M136.64,444.07h5.58v1.46h-7.33V432.64h1.75Z" /><path class="cls-4" d="M154.76,445.53h-1.35a.57.57,0,0,1-.38-.11.73.73,0,0,1-.22-.3l-1.2-3.11h-5.79l-1.21,3.11a.72.72,0,0,1-.21.29.6.6,0,0,1-.38.12h-1.35l5.16-12.89h1.77Zm-8.45-4.78h4.81l-2-5.25a8.86,8.86,0,0,1-.39-1.22c-.07.25-.13.48-.19.68s-.13.39-.19.55Z" /><path class="cls-4" d="M163,434.65a.74.74,0,0,1-.17.21.41.41,0,0,1-.23.06.66.66,0,0,1-.36-.15c-.13-.1-.3-.21-.51-.34a4.42,4.42,0,0,0-.75-.33,3,3,0,0,0-1.06-.16,3.23,3.23,0,0,0-1,.16,2.27,2.27,0,0,0-.75.43,1.9,1.9,0,0,0-.46.63,2.06,2.06,0,0,0-.15.79,1.46,1.46,0,0,0,.27.9,2.31,2.31,0,0,0,.7.6,5,5,0,0,0,1,.44l1.13.38a11.25,11.25,0,0,1,1.14.45,4.23,4.23,0,0,1,1,.62,2.85,2.85,0,0,1,.7.93,3.22,3.22,0,0,1,.26,1.35,4.43,4.43,0,0,1-.28,1.59,3.74,3.74,0,0,1-2.21,2.15,4.94,4.94,0,0,1-1.83.32,5.5,5.5,0,0,1-2.28-.46,5.39,5.39,0,0,1-1.76-1.22l.51-.83A.55.55,0,0,1,156,443a.48.48,0,0,1,.23-.07.69.69,0,0,1,.43.21c.17.13.37.28.61.44a5.13,5.13,0,0,0,.88.45,3.64,3.64,0,0,0,1.27.2,3.39,3.39,0,0,0,1.1-.17,2.59,2.59,0,0,0,.83-.48,2.2,2.2,0,0,0,.52-.75,2.42,2.42,0,0,0,.18-1,1.6,1.6,0,0,0-.27-1,2.22,2.22,0,0,0-.7-.62,4.91,4.91,0,0,0-1-.43L159,439.5a11.91,11.91,0,0,1-1.13-.43,3.63,3.63,0,0,1-1-.63,2.85,2.85,0,0,1-.69-1,3.43,3.43,0,0,1-.27-1.44,3.32,3.32,0,0,1,.27-1.32,3.24,3.24,0,0,1,.77-1.14,3.72,3.72,0,0,1,1.24-.79,4.57,4.57,0,0,1,1.71-.3,5.43,5.43,0,0,1,2,.35,4.41,4.41,0,0,1,1.56,1Z" /><path class="cls-4" d="M176.38,445.53h-1.75v-5.86h-6.95v5.86h-1.75V432.64h1.75v5.75h6.95v-5.75h1.75Z" /><path class="cls-4" d="M292.68,434.65a.74.74,0,0,1-.17.21.41.41,0,0,1-.23.06.66.66,0,0,1-.36-.15c-.13-.1-.3-.21-.51-.34a4.42,4.42,0,0,0-.75-.33,3,3,0,0,0-1.05-.16,3.29,3.29,0,0,0-1,.16,2.27,2.27,0,0,0-.75.43,1.9,1.9,0,0,0-.46.63,2.06,2.06,0,0,0-.15.79,1.46,1.46,0,0,0,.27.9,2.31,2.31,0,0,0,.7.6,5,5,0,0,0,1,.44l1.13.38a11.25,11.25,0,0,1,1.14.45,3.85,3.85,0,0,1,1,.62,2.85,2.85,0,0,1,.7.93,3.07,3.07,0,0,1,.26,1.35,4.43,4.43,0,0,1-.28,1.59,3.86,3.86,0,0,1-.85,1.29,3.81,3.81,0,0,1-1.35.86,5,5,0,0,1-1.84.32,5.53,5.53,0,0,1-4-1.68l.51-.83a.55.55,0,0,1,.17-.17.48.48,0,0,1,.23-.07.69.69,0,0,1,.43.21c.17.13.37.28.61.44a5.13,5.13,0,0,0,.88.45,3.64,3.64,0,0,0,1.27.2,3.5,3.5,0,0,0,1.11-.17,2.65,2.65,0,0,0,.82-.48,2.2,2.2,0,0,0,.52-.75,2.42,2.42,0,0,0,.18-1,1.6,1.6,0,0,0-.27-1,2.22,2.22,0,0,0-.7-.62,4.67,4.67,0,0,0-1-.43l-1.14-.36a11.91,11.91,0,0,1-1.13-.43,3.63,3.63,0,0,1-1-.63,2.85,2.85,0,0,1-.69-1,3.43,3.43,0,0,1-.27-1.44,3.32,3.32,0,0,1,.27-1.32,3.24,3.24,0,0,1,.77-1.14,3.72,3.72,0,0,1,1.24-.79,4.57,4.57,0,0,1,1.71-.3,5.4,5.4,0,0,1,2,.35,4.41,4.41,0,0,1,1.56,1Z" /><path class="cls-4" d="M298,448.23a.88.88,0,0,1-.2.28.54.54,0,0,1-.38.11h-1.19l1.67-3.62-3.76-8.58h1.38a.48.48,0,0,1,.33.1.72.72,0,0,1,.17.23l2.44,5.74c.05.13.1.27.14.4s.07.27.1.4c0-.13.08-.27.13-.4s.09-.27.14-.41l2.37-5.73a.43.43,0,0,1,.18-.24.5.5,0,0,1,.29-.09h1.27Z" /><path class="cls-4" d="M309.8,437.92a.35.35,0,0,1-.33.2.62.62,0,0,1-.31-.1,3.92,3.92,0,0,0-.42-.22,3.83,3.83,0,0,0-.59-.23,3.08,3.08,0,0,0-.81-.1,2.61,2.61,0,0,0-.72.1,1.74,1.74,0,0,0-.56.29,1.27,1.27,0,0,0-.35.42,1.13,1.13,0,0,0-.12.51.9.9,0,0,0,.2.59,1.9,1.9,0,0,0,.54.4,4.34,4.34,0,0,0,.75.31l.87.27q.45.15.87.33a3.39,3.39,0,0,1,.76.45,2,2,0,0,1,.53.66,2,2,0,0,1,.2.94,3,3,0,0,1-.22,1.17,2.46,2.46,0,0,1-.67.93,3.14,3.14,0,0,1-1.08.61,4.36,4.36,0,0,1-1.47.23,4.76,4.76,0,0,1-1.73-.31,4.26,4.26,0,0,1-1.31-.8l.37-.61a.59.59,0,0,1,.17-.18.54.54,0,0,1,.27-.06.64.64,0,0,1,.34.12,4.62,4.62,0,0,0,.43.28,3.11,3.11,0,0,0,.63.28,2.88,2.88,0,0,0,.91.13,2.31,2.31,0,0,0,.82-.13,1.79,1.79,0,0,0,.58-.32,1.35,1.35,0,0,0,.35-.48,1.58,1.58,0,0,0,.11-.58,1,1,0,0,0-.2-.62,1.63,1.63,0,0,0-.54-.42,4.14,4.14,0,0,0-.76-.31l-.87-.28a8.18,8.18,0,0,1-.87-.32,3,3,0,0,1-.76-.47,2,2,0,0,1-.54-.69,2.27,2.27,0,0,1-.2-1,2.46,2.46,0,0,1,.21-1,2.62,2.62,0,0,1,.63-.85,3.16,3.16,0,0,1,1-.58,4.16,4.16,0,0,1,1.38-.22,4.28,4.28,0,0,1,1.61.29,3.84,3.84,0,0,1,1.24.78Z" /><path class="cls-4" d="M315.16,445.68a2.19,2.19,0,0,1-1.66-.6,2.42,2.42,0,0,1-.58-1.74v-5.58h-1.1a.37.37,0,0,1-.25-.09.33.33,0,0,1-.09-.26v-.64l1.49-.19.37-2.82a.32.32,0,0,1,.12-.22.34.34,0,0,1,.25-.08h.81v3.14h2.61v1.16h-2.61v5.47a1.17,1.17,0,0,0,.28.86,1,1,0,0,0,.72.27,1.4,1.4,0,0,0,.43-.06,2.44,2.44,0,0,0,.32-.15c.09-.06.17-.1.23-.15a.34.34,0,0,1,.17-.07.26.26,0,0,1,.22.16l.47.76a3.05,3.05,0,0,1-1,.61A3.54,3.54,0,0,1,315.16,445.68Z" /><path class="cls-4" d="M322.72,436.27a3.94,3.94,0,0,1,1.51.28,3.35,3.35,0,0,1,1.19.79,3.6,3.6,0,0,1,.79,1.28,4.9,4.9,0,0,1,.29,1.73,1.07,1.07,0,0,1-.08.5.34.34,0,0,1-.31.13H320a4.71,4.71,0,0,0,.24,1.5,3,3,0,0,0,.59,1.07,2.29,2.29,0,0,0,.9.64,3.13,3.13,0,0,0,1.17.21,3.54,3.54,0,0,0,1-.14,4.5,4.5,0,0,0,.75-.3c.21-.11.39-.21.53-.3a.63.63,0,0,1,.36-.14.36.36,0,0,1,.31.15l.45.59a3,3,0,0,1-.71.62,4.61,4.61,0,0,1-.89.44,5.31,5.31,0,0,1-1,.25,5.72,5.72,0,0,1-1,.09,4.78,4.78,0,0,1-1.75-.32,3.69,3.69,0,0,1-1.37-.94,4.25,4.25,0,0,1-.91-1.52,6.37,6.37,0,0,1-.32-2.09,5.45,5.45,0,0,1,.29-1.78,4.48,4.48,0,0,1,.84-1.44,4,4,0,0,1,1.34-.95A4.47,4.47,0,0,1,322.72,436.27Zm0,1.18a2.51,2.51,0,0,0-1.83.67,3.21,3.21,0,0,0-.82,1.86h5a3.3,3.3,0,0,0-.16-1,2.16,2.16,0,0,0-.45-.8,2,2,0,0,0-.72-.52A2.35,2.35,0,0,0,322.75,437.45Z" /><path class="cls-4" d="M328.54,445.53v-9.11h.95a.4.4,0,0,1,.43.33l.12.94a4.51,4.51,0,0,1,1.13-1,2.7,2.7,0,0,1,1.45-.4,2.12,2.12,0,0,1,1.5.52,2.9,2.9,0,0,1,.83,1.38,2.65,2.65,0,0,1,.5-.85,3,3,0,0,1,.69-.6,3.16,3.16,0,0,1,.83-.34,3.72,3.72,0,0,1,.88-.11,3.49,3.49,0,0,1,1.29.23,2.69,2.69,0,0,1,.95.67,3.1,3.1,0,0,1,.6,1.09,4.74,4.74,0,0,1,.21,1.47v5.8h-1.61v-5.8a2.49,2.49,0,0,0-.46-1.63,1.73,1.73,0,0,0-1.36-.55,2,2,0,0,0-.75.14,1.76,1.76,0,0,0-.63.41,2,2,0,0,0-.43.68,2.74,2.74,0,0,0-.16,1v5.8h-1.6v-5.8a2.53,2.53,0,0,0-.44-1.64,1.56,1.56,0,0,0-1.29-.54,2.07,2.07,0,0,0-1.1.32,3.45,3.45,0,0,0-.93.87v6.79Z" /><path class="cls-4" d="M353.65,434.65a1,1,0,0,1-.17.21.43.43,0,0,1-.24.06.61.61,0,0,1-.35-.15l-.51-.34a4.42,4.42,0,0,0-.75-.33,3,3,0,0,0-1.06-.16,3.23,3.23,0,0,0-1,.16,2.43,2.43,0,0,0-.76.43,1.74,1.74,0,0,0-.45.63,2.06,2.06,0,0,0-.15.79,1.52,1.52,0,0,0,.26.9,2.44,2.44,0,0,0,.7.6,5.59,5.59,0,0,0,1,.44l1.14.38a11.07,11.07,0,0,1,1.13.45,3.85,3.85,0,0,1,1,.62,2.72,2.72,0,0,1,.7.93,3.07,3.07,0,0,1,.27,1.35,4.44,4.44,0,0,1-.29,1.59,3.69,3.69,0,0,1-.84,1.29,3.86,3.86,0,0,1-1.36.86,5,5,0,0,1-1.83.32,5.5,5.5,0,0,1-2.28-.46A5.28,5.28,0,0,1,346,444l.5-.83a.73.73,0,0,1,.18-.17.45.45,0,0,1,.23-.07.71.71,0,0,1,.43.21,6.61,6.61,0,0,0,.61.44,4.79,4.79,0,0,0,.88.45,3.58,3.58,0,0,0,1.26.2,3.41,3.41,0,0,0,1.11-.17,2.54,2.54,0,0,0,.82-.48,2.07,2.07,0,0,0,.52-.75,2.42,2.42,0,0,0,.18-1,1.67,1.67,0,0,0-.26-1,2.22,2.22,0,0,0-.7-.62,5,5,0,0,0-1-.43l-1.13-.36a11.13,11.13,0,0,1-1.14-.43,3.73,3.73,0,0,1-1-.63,2.87,2.87,0,0,1-.7-1,3.6,3.6,0,0,1-.26-1.44,3.49,3.49,0,0,1,.26-1.32,3.53,3.53,0,0,1,.77-1.14,3.76,3.76,0,0,1,1.25-.79,4.49,4.49,0,0,1,1.7-.3,5.4,5.4,0,0,1,2,.35,4.24,4.24,0,0,1,1.56,1Z" /><path class="cls-4" d="M358.5,440.15v5.38h-1.74V432.64h3.65a7.73,7.73,0,0,1,2.11.25,3.88,3.88,0,0,1,1.47.71,2.78,2.78,0,0,1,.86,1.13,3.69,3.69,0,0,1,.28,1.48,3.82,3.82,0,0,1-.21,1.28,3.73,3.73,0,0,1-.63,1.07,3.63,3.63,0,0,1-1,.8,4.89,4.89,0,0,1-1.33.5,2,2,0,0,1,.57.55l3.76,5.12h-1.54a.78.78,0,0,1-.71-.36l-3.34-4.61a1,1,0,0,0-.34-.31,1.1,1.1,0,0,0-.54-.1Zm0-1.27h1.83a4.48,4.48,0,0,0,1.34-.18,2.72,2.72,0,0,0,1-.52,2.12,2.12,0,0,0,.59-.81,2.49,2.49,0,0,0,.2-1,2.05,2.05,0,0,0-.76-1.74,3.68,3.68,0,0,0-2.26-.58H358.5Z" /><path class="cls-4" d="M378.79,445.53h-1.35a.56.56,0,0,1-.38-.11.73.73,0,0,1-.22-.3l-1.2-3.11h-5.79l-1.21,3.11a.72.72,0,0,1-.21.29.62.62,0,0,1-.38.12H366.7l5.16-12.89h1.77Zm-8.46-4.78h4.82l-2-5.25a9,9,0,0,1-.38-1.22c-.07.25-.13.48-.2.68s-.12.39-.18.55Z" /><path class="cls-4" d="M387,441.33l.18.48c.06-.17.13-.33.19-.48a5.08,5.08,0,0,1,.23-.47l4.36-7.92a.52.52,0,0,1,.25-.26,1.11,1.11,0,0,1,.36,0h1.28v12.89H392.3v-9.47c0-.13,0-.26,0-.41l0-.44-4.42,8.07a.69.69,0,0,1-.63.4H387a.69.69,0,0,1-.63-.4l-4.52-8.09c0,.15,0,.3,0,.45s0,.29,0,.42v9.47h-1.53V432.64h1.29a1.11,1.11,0,0,1,.36,0,.48.48,0,0,1,.24.26l4.46,7.93A3.88,3.88,0,0,1,387,441.33Z" /><path class="cls-4" d="M81.32,237.17a.5.5,0,0,1,.36.16l.95,1a7.52,7.52,0,0,1-2.67,2,9,9,0,0,1-3.78.72,8.82,8.82,0,0,1-3.51-.67A7.68,7.68,0,0,1,70,238.52a8.43,8.43,0,0,1-1.73-2.89,11,11,0,0,1-.61-3.71,10.08,10.08,0,0,1,.66-3.71A8.24,8.24,0,0,1,73,223.42a9.85,9.85,0,0,1,3.66-.66,8.14,8.14,0,0,1,6,2.27l-.79,1.11a.67.67,0,0,1-.2.21.56.56,0,0,1-.32.08.61.61,0,0,1-.34-.12L80.5,226c-.16-.12-.36-.24-.58-.38a5.44,5.44,0,0,0-.8-.37A6.4,6.4,0,0,0,78,225a7.42,7.42,0,0,0-1.41-.12,6.77,6.77,0,0,0-2.63.5,5.91,5.91,0,0,0-2.06,1.41A6.31,6.31,0,0,0,70.6,229a8.47,8.47,0,0,0-.48,2.94,8.62,8.62,0,0,0,.48,3,6.56,6.56,0,0,0,1.31,2.22,5.48,5.48,0,0,0,2,1.39,6.4,6.4,0,0,0,2.45.47,10.48,10.48,0,0,0,1.44-.09,6.18,6.18,0,0,0,1.18-.3,5,5,0,0,0,1-.5,7.59,7.59,0,0,0,.94-.74A.67.67,0,0,1,81.32,237.17Z" /><path class="cls-4" d="M90.59,228a6.49,6.49,0,0,1,2.51.46,5.3,5.3,0,0,1,1.9,1.31,5.83,5.83,0,0,1,1.2,2.06,8.86,8.86,0,0,1,0,5.39,5.87,5.87,0,0,1-1.2,2.05,5.3,5.3,0,0,1-1.9,1.31,7.23,7.23,0,0,1-5,0,5.3,5.3,0,0,1-1.9-1.31A5.75,5.75,0,0,1,85,237.23a8.66,8.66,0,0,1,0-5.39,5.7,5.7,0,0,1,1.21-2.06,5.3,5.3,0,0,1,1.9-1.31A6.52,6.52,0,0,1,90.59,228Zm0,11.3a3.25,3.25,0,0,0,2.8-1.26,7.11,7.11,0,0,0,0-7,3.25,3.25,0,0,0-2.8-1.26,3.86,3.86,0,0,0-1.65.32,3.07,3.07,0,0,0-1.17.94,4.34,4.34,0,0,0-.7,1.5,9,9,0,0,0,0,4,4.29,4.29,0,0,0,.7,1.49,3.14,3.14,0,0,0,1.17.93A3.86,3.86,0,0,0,90.59,239.31Z" /><path class="cls-4" d="M99.37,240.87V228.21h1.27a.71.71,0,0,1,.5.13.9.9,0,0,1,.19.48l.15,2a5.9,5.9,0,0,1,1.6-2.07,3.6,3.6,0,0,1,2.25-.74,3.48,3.48,0,0,1,1,.12,3.66,3.66,0,0,1,.79.33l-.29,1.66a.38.38,0,0,1-.39.31,1.87,1.87,0,0,1-.54-.11,3.35,3.35,0,0,0-1-.12,2.86,2.86,0,0,0-1.94.67,5.1,5.1,0,0,0-1.31,2v8.06Z" /><path class="cls-4" d="M113.28,241.07a3.06,3.06,0,0,1-2.31-.84,3.37,3.37,0,0,1-.8-2.41v-7.75h-1.53a.52.52,0,0,1-.34-.12.46.46,0,0,1-.13-.37v-.89l2.07-.26.51-3.91a.46.46,0,0,1,.17-.31.5.5,0,0,1,.35-.12h1.12v4.37H116v1.61h-3.63v7.6a1.58,1.58,0,0,0,.39,1.18,1.35,1.35,0,0,0,1,.39,1.8,1.8,0,0,0,.6-.09,2.09,2.09,0,0,0,.45-.21l.32-.2a.36.36,0,0,1,.23-.1.37.37,0,0,1,.31.21l.65,1.07a4,4,0,0,1-1.39.84A4.58,4.58,0,0,1,113.28,241.07Z" /><path class="cls-4" d="M123.78,228a5.52,5.52,0,0,1,2.1.38,4.68,4.68,0,0,1,1.66,1.1,5,5,0,0,1,1.09,1.77,6.73,6.73,0,0,1,.4,2.41,1.53,1.53,0,0,1-.11.7.5.5,0,0,1-.43.17h-8.42a6.8,6.8,0,0,0,.32,2.09,4.23,4.23,0,0,0,.83,1.48,3.26,3.26,0,0,0,1.25.89,4.37,4.37,0,0,0,1.62.29,4.7,4.7,0,0,0,1.44-.19,6.73,6.73,0,0,0,1-.42c.29-.15.53-.29.73-.42a1,1,0,0,1,.51-.19.49.49,0,0,1,.42.21l.63.81a4.13,4.13,0,0,1-1,.87,6.13,6.13,0,0,1-1.23.61,7,7,0,0,1-1.36.35,8.24,8.24,0,0,1-1.39.12,6.59,6.59,0,0,1-2.42-.44,5.45,5.45,0,0,1-1.91-1.3,5.93,5.93,0,0,1-1.25-2.12,8.62,8.62,0,0,1-.45-2.9,7.35,7.35,0,0,1,.4-2.47,5.77,5.77,0,0,1,1.17-2,5.43,5.43,0,0,1,1.86-1.32A6.16,6.16,0,0,1,123.78,228Zm0,1.63a3.42,3.42,0,0,0-2.54.93,4.39,4.39,0,0,0-1.15,2.58H127a4.53,4.53,0,0,0-.21-1.41,3.32,3.32,0,0,0-.63-1.12,2.74,2.74,0,0,0-1-.72A3.35,3.35,0,0,0,123.83,229.64Z" /><path class="cls-4" d="M134.08,234.38l-4.26-6.17H132a.68.68,0,0,1,.4.08.8.8,0,0,1,.23.25l3.1,4.75a3.33,3.33,0,0,1,.32-.7l2.73-4a1.38,1.38,0,0,1,.25-.28.46.46,0,0,1,.31-.1h2.05l-4.26,6,4.44,6.61h-2.14a.58.58,0,0,1-.43-.15,1.14,1.14,0,0,1-.26-.32l-3.19-5a2.21,2.21,0,0,1-.26.65l-3,4.31a1.69,1.69,0,0,1-.27.32.51.51,0,0,1-.39.15h-2Z" /><path class="cls-4" d="M143.14,232.43h6.18v1.89h-6.18Z" /><path class="cls-4" d="M161.86,235c.09.22.17.45.26.67.08-.23.17-.45.26-.67s.19-.42.31-.64l6.06-11a.72.72,0,0,1,.34-.35,1.61,1.61,0,0,1,.5-.06h1.79v17.91h-2.13V227.71c0-.18,0-.37,0-.57s0-.4,0-.61l-6.13,11.2a1,1,0,0,1-.88.56h-.35a1,1,0,0,1-.87-.56l-6.28-11.24c0,.22,0,.43.06.64s0,.4,0,.58v13.16h-2.13V223h1.79a1.66,1.66,0,0,1,.5.06.76.76,0,0,1,.34.35l6.18,11A4.6,4.6,0,0,1,161.86,235Z" /><path class="cls-4" d="M263.7,86.33v1.42h-6.19V92h5v1.37h-5v4.4h6.19v1.42h-7.94V86.33Z" /><path class="cls-4" d="M268.73,99.37a2.19,2.19,0,0,1-1.66-.6,2.39,2.39,0,0,1-.59-1.74V91.45h-1.09a.41.41,0,0,1-.25-.08.37.37,0,0,1-.1-.27v-.64l1.5-.19.37-2.81a.33.33,0,0,1,.11-.22.37.37,0,0,1,.26-.09h.81v3.14h2.61v1.16h-2.61v5.48a1.15,1.15,0,0,0,.28.85.94.94,0,0,0,.72.28,1.14,1.14,0,0,0,.43-.07,1.19,1.19,0,0,0,.32-.15,1.53,1.53,0,0,0,.23-.15.32.32,0,0,1,.17-.06.27.27,0,0,1,.22.15l.47.77a3,3,0,0,1-1,.6A3.31,3.31,0,0,1,268.73,99.37Z" /><path class="cls-4" d="M272.68,99.23V86h1.6v5.37a4.88,4.88,0,0,1,1.29-1,3.48,3.48,0,0,1,1.64-.37,3.21,3.21,0,0,1,1.32.25,2.49,2.49,0,0,1,1,.7,3.34,3.34,0,0,1,.58,1.09,4.86,4.86,0,0,1,.19,1.41v5.81h-1.6V93.42a2.46,2.46,0,0,0-.47-1.6,1.78,1.78,0,0,0-1.45-.57,2.65,2.65,0,0,0-1.32.34,4.48,4.48,0,0,0-1.14.93v6.71Z" /><path class="cls-4" d="M286.37,90a4.75,4.75,0,0,1,1.81.33,3.79,3.79,0,0,1,1.37,1,4.15,4.15,0,0,1,.86,1.48,6.42,6.42,0,0,1,0,3.88,4.24,4.24,0,0,1-.86,1.48,3.9,3.9,0,0,1-1.37.94,5.25,5.25,0,0,1-3.61,0,3.9,3.9,0,0,1-1.37-.94,4.28,4.28,0,0,1-.88-1.48,6.42,6.42,0,0,1,0-3.88,4.19,4.19,0,0,1,.88-1.48,3.79,3.79,0,0,1,1.37-1A4.73,4.73,0,0,1,286.37,90Zm0,8.13a2.35,2.35,0,0,0,2-.9,4.19,4.19,0,0,0,.67-2.52,4.24,4.24,0,0,0-.67-2.54,2.33,2.33,0,0,0-2-.91,2.85,2.85,0,0,0-1.18.23,2.25,2.25,0,0,0-.85.68,3,3,0,0,0-.5,1.08,5.91,5.91,0,0,0-.17,1.46,5.69,5.69,0,0,0,.17,1.44,3,3,0,0,0,.5,1.08,2.33,2.33,0,0,0,.85.67A2.7,2.7,0,0,0,286.37,98.1Z" /><path class="cls-4" d="M297.91,91.61a.34.34,0,0,1-.33.2.62.62,0,0,1-.31-.1l-.42-.22a4.18,4.18,0,0,0-.58-.22,2.78,2.78,0,0,0-.81-.11,2.33,2.33,0,0,0-.73.11,1.84,1.84,0,0,0-.56.28,1.27,1.27,0,0,0-.35.42,1.14,1.14,0,0,0-.12.52.87.87,0,0,0,.2.58,1.92,1.92,0,0,0,.54.41,5.32,5.32,0,0,0,.75.3l.87.28q.45.15.87.33a3.39,3.39,0,0,1,.76.45,2,2,0,0,1,.53.66,2,2,0,0,1,.2.94,2.92,2.92,0,0,1-.22,1.16,2.46,2.46,0,0,1-.67.93,3.16,3.16,0,0,1-1.08.62,4.37,4.37,0,0,1-1.47.22,4.56,4.56,0,0,1-1.73-.31,4.24,4.24,0,0,1-1.31-.79l.37-.62a.77.77,0,0,1,.18-.18.48.48,0,0,1,.26-.06.58.58,0,0,1,.34.13l.43.28a4.21,4.21,0,0,0,.63.28,2.91,2.91,0,0,0,.91.12,2.57,2.57,0,0,0,.82-.12,1.63,1.63,0,0,0,.58-.33,1.35,1.35,0,0,0,.35-.48,1.56,1.56,0,0,0,.11-.57,1,1,0,0,0-.2-.63,1.81,1.81,0,0,0-.54-.42,4.14,4.14,0,0,0-.76-.31l-.87-.27q-.45-.15-.87-.33a3,3,0,0,1-.76-.46,2.05,2.05,0,0,1-.74-1.69,2.35,2.35,0,0,1,.22-1,2.45,2.45,0,0,1,.63-.85,3.19,3.19,0,0,1,1-.58,4.17,4.17,0,0,1,1.38-.21,4.37,4.37,0,0,1,1.62.28,3.91,3.91,0,0,1,1.23.78Z" /><path class="cls-4" d="M300.09,93.15h4.45v1.36h-4.45Z" /><path class="cls-4" d="M312,97.84a3.63,3.63,0,0,0,1.44-.27,3,3,0,0,0,1.06-.75,3.33,3.33,0,0,0,.67-1.16,4.7,4.7,0,0,0,.23-1.49V86.33h1.73v7.84a5.81,5.81,0,0,1-.35,2.07,4.79,4.79,0,0,1-1,1.65,4.7,4.7,0,0,1-1.61,1.1,6.09,6.09,0,0,1-4.29,0,4.84,4.84,0,0,1-1.62-1.1,4.79,4.79,0,0,1-1-1.65,5.81,5.81,0,0,1-.35-2.07V86.33h1.73v7.83a4.7,4.7,0,0,0,.23,1.49,3.5,3.5,0,0,0,.67,1.16,3.07,3.07,0,0,0,1.07.76A3.61,3.61,0,0,0,312,97.84Z" /><path class="cls-4" d="M327.38,87a.77.77,0,0,1-.22.57,1,1,0,0,1-.73.22h-4.05l-.59,3.38a9.19,9.19,0,0,1,1.86-.22,4.88,4.88,0,0,1,1.78.3,3.7,3.7,0,0,1,1.29.82,3.47,3.47,0,0,1,.79,1.23,4.35,4.35,0,0,1,.26,1.55,4.64,4.64,0,0,1-.36,1.86,4.15,4.15,0,0,1-1,1.41,4.28,4.28,0,0,1-1.47.91,5.25,5.25,0,0,1-1.83.31,4.86,4.86,0,0,1-1.09-.11,4.78,4.78,0,0,1-1-.3,6.61,6.61,0,0,1-.84-.43,5.5,5.5,0,0,1-.68-.52l.48-.68a.5.5,0,0,1,.44-.23.77.77,0,0,1,.4.14l.55.31a6.28,6.28,0,0,0,.76.31,3.54,3.54,0,0,0,1,.14,3.26,3.26,0,0,0,1.21-.22,2.58,2.58,0,0,0,.93-.62,2.73,2.73,0,0,0,.59-1,3.72,3.72,0,0,0,.2-1.25,3.16,3.16,0,0,0-.17-1.09,2.28,2.28,0,0,0-.53-.82,2.32,2.32,0,0,0-.89-.53,3.59,3.59,0,0,0-1.24-.19,6,6,0,0,0-1,.08,6.5,6.5,0,0,0-1.08.26l-1-.3,1-6h6.11Z" /><path class="cls-4" d="M337.82,87a.77.77,0,0,1-.22.57,1,1,0,0,1-.73.22h-4.05l-.59,3.38a9.19,9.19,0,0,1,1.86-.22,4.88,4.88,0,0,1,1.78.3,3.7,3.7,0,0,1,1.29.82,3.47,3.47,0,0,1,.79,1.23,4.58,4.58,0,0,1,.26,1.55,4.64,4.64,0,0,1-.36,1.86,4.15,4.15,0,0,1-1,1.41,4.28,4.28,0,0,1-1.47.91,5.25,5.25,0,0,1-1.83.31,4.86,4.86,0,0,1-1.09-.11,4.78,4.78,0,0,1-1-.3,6.61,6.61,0,0,1-.84-.43A5.5,5.5,0,0,1,330,98l.48-.68a.5.5,0,0,1,.44-.23.77.77,0,0,1,.4.14l.55.31a6.28,6.28,0,0,0,.76.31,3.54,3.54,0,0,0,1,.14,3.4,3.4,0,0,0,1.22-.22,2.54,2.54,0,0,0,.92-.62,2.73,2.73,0,0,0,.59-1,3.72,3.72,0,0,0,.2-1.25,3.16,3.16,0,0,0-.17-1.09,2.28,2.28,0,0,0-.53-.82,2.4,2.4,0,0,0-.89-.53,3.59,3.59,0,0,0-1.24-.19,5.88,5.88,0,0,0-1,.08,6.5,6.5,0,0,0-1.08.26l-1-.3,1-6h6.11Z" /><path class="cls-4" d="M344.24,99.23V90.11h1a.4.4,0,0,1,.43.33l.12.94a4.73,4.73,0,0,1,1.13-1,2.67,2.67,0,0,1,1.45-.39,2.16,2.16,0,0,1,1.5.51,2.87,2.87,0,0,1,.82,1.39,2.9,2.9,0,0,1,.5-.86,2.95,2.95,0,0,1,1.52-.93,3.34,3.34,0,0,1,.89-.11,3.21,3.21,0,0,1,1.28.23,2.39,2.39,0,0,1,1,.67,2.83,2.83,0,0,1,.6,1.08,4.74,4.74,0,0,1,.21,1.47v5.81H355V93.42a2.46,2.46,0,0,0-.47-1.62,1.67,1.67,0,0,0-1.36-.55,1.92,1.92,0,0,0-.75.14,1.64,1.64,0,0,0-.63.41,1.82,1.82,0,0,0-.42.67,2.56,2.56,0,0,0-.16,1v5.81h-1.6V93.42a2.56,2.56,0,0,0-.44-1.63,1.58,1.58,0,0,0-1.29-.54,2,2,0,0,0-1.1.32,3.57,3.57,0,0,0-.93.86v6.8Z" /><path class="cls-4" d="M361.16,87.25a1.08,1.08,0,0,1-.09.44,1.45,1.45,0,0,1-.25.36,1.31,1.31,0,0,1-.37.24,1.08,1.08,0,0,1-.44.09,1,1,0,0,1-.43-.09,1.31,1.31,0,0,1-.37-.24,1.41,1.41,0,0,1-.24-.36,1.08,1.08,0,0,1-.09-.44,1.17,1.17,0,0,1,.09-.45,1.13,1.13,0,0,1,.24-.36,1.15,1.15,0,0,1,.37-.25,1,1,0,0,1,.43-.09,1.08,1.08,0,0,1,.44.09,1.2,1.2,0,0,1,.62.61A1.17,1.17,0,0,1,361.16,87.25Zm-.36,2.86v9.12h-1.6V90.11Z" /><path class="cls-4" d="M369.85,91.73a.78.78,0,0,1-.15.16.34.34,0,0,1-.2,0,.53.53,0,0,1-.29-.11,3.82,3.82,0,0,0-1-.5,2.92,2.92,0,0,0-.85-.11,2.72,2.72,0,0,0-1.17.24,2.23,2.23,0,0,0-.86.69,3,3,0,0,0-.53,1.08,5.8,5.8,0,0,0-.17,1.44,5.09,5.09,0,0,0,.19,1.47,3,3,0,0,0,.53,1.08,2.21,2.21,0,0,0,.83.66,2.49,2.49,0,0,0,1.1.23,2.73,2.73,0,0,0,1-.14,2.64,2.64,0,0,0,.63-.31,4,4,0,0,0,.41-.31.53.53,0,0,1,.32-.14.34.34,0,0,1,.31.16l.45.58A3.48,3.48,0,0,1,368.88,99a5.35,5.35,0,0,1-1.88.33,3.91,3.91,0,0,1-1.58-.31,3.61,3.61,0,0,1-1.28-.91,4.36,4.36,0,0,1-.85-1.48,5.8,5.8,0,0,1-.31-2,6.35,6.35,0,0,1,.28-1.89,4.28,4.28,0,0,1,.83-1.48,3.7,3.7,0,0,1,1.35-1,4.56,4.56,0,0,1,1.83-.35,4.33,4.33,0,0,1,1.7.31,4.1,4.1,0,0,1,1.3.88Z" /><path class="cls-4" d="M372,99.23V90.11H373a.47.47,0,0,1,.36.1.63.63,0,0,1,.14.34l.11,1.43a4,4,0,0,1,1.15-1.49,2.55,2.55,0,0,1,1.62-.54A2.38,2.38,0,0,1,377,90a2.06,2.06,0,0,1,.57.23l-.21,1.2a.27.27,0,0,1-.28.23,1.31,1.31,0,0,1-.38-.09,2.37,2.37,0,0,0-.73-.09,2.08,2.08,0,0,0-1.4.49,3.66,3.66,0,0,0-.94,1.41v5.81Z" /><path class="cls-4" d="M383,90a4.69,4.69,0,0,1,1.8.33,3.71,3.71,0,0,1,1.37,1,4.17,4.17,0,0,1,.87,1.48,6.42,6.42,0,0,1,0,3.88,4.26,4.26,0,0,1-.87,1.48,3.81,3.81,0,0,1-1.37.94,4.69,4.69,0,0,1-1.8.32,4.75,4.75,0,0,1-1.81-.32,4,4,0,0,1-1.37-.94,4.11,4.11,0,0,1-.87-1.48,6.23,6.23,0,0,1,0-3.88,4,4,0,0,1,.87-1.48,3.88,3.88,0,0,1,1.37-1A4.75,4.75,0,0,1,383,90Zm0,8.13a2.36,2.36,0,0,0,2-.9,4.2,4.2,0,0,0,.66-2.52,4.24,4.24,0,0,0-.66-2.54,2.34,2.34,0,0,0-2-.91,2.9,2.9,0,0,0-1.19.23,2.22,2.22,0,0,0-.84.68,2.84,2.84,0,0,0-.5,1.08,5.47,5.47,0,0,0-.17,1.46,5.27,5.27,0,0,0,.17,1.44,2.84,2.84,0,0,0,.5,1.08,2.29,2.29,0,0,0,.84.67A2.75,2.75,0,0,0,383,98.1Z" /><path class="cls-4" d="M390.79,86.39a.8.8,0,0,1,.26.24l7.47,9.72a3.67,3.67,0,0,1,0-.46c0-.14,0-.29,0-.42V86.33H400v12.9h-.89a.71.71,0,0,1-.34-.07.9.9,0,0,1-.28-.25L391,89.2l0,.44c0,.15,0,.28,0,.4v9.19h-1.53V86.33h.9A.74.74,0,0,1,390.79,86.39Z" /><path class="cls-4" d="M405.07,94.4v4.83h-1.73V86.33h3.8a7.08,7.08,0,0,1,2.13.29,3.84,3.84,0,0,1,1.5.8,3.3,3.3,0,0,1,.89,1.26,4.53,4.53,0,0,1,.29,1.65,4.22,4.22,0,0,1-.32,1.65,3.52,3.52,0,0,1-.92,1.28,4.24,4.24,0,0,1-1.51.84,6.48,6.48,0,0,1-2.06.3Zm0-1.38h2.07a4.07,4.07,0,0,0,1.32-.2,2.81,2.81,0,0,0,1-.55,2.41,2.41,0,0,0,.59-.85,3,3,0,0,0,.19-1.09,2.47,2.47,0,0,0-.76-1.93,3.31,3.31,0,0,0-2.3-.69h-2.07Z" /><path class="cls-4" d="M419.17,97.84a3.61,3.61,0,0,0,1.43-.27,3.14,3.14,0,0,0,1.07-.75,3.31,3.31,0,0,0,.66-1.16,4.7,4.7,0,0,0,.23-1.49V86.33h1.74v7.84a5.81,5.81,0,0,1-.36,2.07,4.5,4.5,0,0,1-1,1.65,4.61,4.61,0,0,1-1.61,1.1A6.07,6.07,0,0,1,417,99a4.72,4.72,0,0,1-2.65-2.75,6,6,0,0,1-.35-2.07V86.33h1.74v7.83a4.44,4.44,0,0,0,.23,1.49,3.31,3.31,0,0,0,.66,1.16,3.07,3.07,0,0,0,1.07.76A3.66,3.66,0,0,0,419.17,97.84Z" /><path class="cls-2" d="M299,174.79a.34.34,0,0,1,.26.12l.69.74a5.56,5.56,0,0,1-1.92,1.43,6.46,6.46,0,0,1-2.73.52,6.27,6.27,0,0,1-2.53-.49,5.62,5.62,0,0,1-1.93-1.34,6.14,6.14,0,0,1-1.24-2.09,7.63,7.63,0,0,1-.44-2.67,7.2,7.2,0,0,1,.47-2.67,6,6,0,0,1,3.37-3.45,7,7,0,0,1,2.64-.48,5.85,5.85,0,0,1,4.28,1.64l-.57.8a.67.67,0,0,1-.14.15.37.37,0,0,1-.23.06.43.43,0,0,1-.25-.09,2.85,2.85,0,0,1-.31-.21l-.43-.27a3.81,3.81,0,0,0-.57-.27,5.41,5.41,0,0,0-.78-.21,5.05,5.05,0,0,0-1-.09,4.91,4.91,0,0,0-1.9.36,4.33,4.33,0,0,0-1.48,1,4.83,4.83,0,0,0-1,1.6A6.16,6.16,0,0,0,291,171a6.26,6.26,0,0,0,.34,2.15,5,5,0,0,0,.95,1.6,4,4,0,0,0,1.42,1,4.45,4.45,0,0,0,1.76.34,8.22,8.22,0,0,0,1-.06,4.41,4.41,0,0,0,.85-.22,3.3,3.3,0,0,0,.73-.36,5.17,5.17,0,0,0,.67-.53A.48.48,0,0,1,299,174.79Z" /><path class="cls-2" d="M305.69,168.19a4.75,4.75,0,0,1,1.81.33,3.88,3.88,0,0,1,1.36.95,4.11,4.11,0,0,1,.87,1.48,5.94,5.94,0,0,1,.3,1.94,5.85,5.85,0,0,1-.3,1.94,4.11,4.11,0,0,1-.87,1.48,3.73,3.73,0,0,1-1.36.94,4.75,4.75,0,0,1-1.81.33,4.66,4.66,0,0,1-1.8-.33,3.81,3.81,0,0,1-1.38-.94,4.26,4.26,0,0,1-.87-1.48,5.85,5.85,0,0,1-.31-1.94,5.93,5.93,0,0,1,.31-1.94,4.26,4.26,0,0,1,.87-1.48,4,4,0,0,1,1.38-.95A4.66,4.66,0,0,1,305.69,168.19Zm0,8.14a2.34,2.34,0,0,0,2-.91,4.2,4.2,0,0,0,.66-2.52,4.26,4.26,0,0,0-.66-2.54,2.34,2.34,0,0,0-2-.91,2.75,2.75,0,0,0-1.19.24,2.27,2.27,0,0,0-.84.67,3.08,3.08,0,0,0-.5,1.08,5.91,5.91,0,0,0-.17,1.46,5.83,5.83,0,0,0,.17,1.45,3,3,0,0,0,.5,1.07,2.27,2.27,0,0,0,.84.67A2.75,2.75,0,0,0,305.69,176.33Z" /><path class="cls-2" d="M312,177.45v-9.11H313a.4.4,0,0,1,.43.33l.13,1a5.13,5.13,0,0,1,1.33-1.06,3.44,3.44,0,0,1,1.69-.41,3.21,3.21,0,0,1,1.32.25,2.59,2.59,0,0,1,1,.7,3.34,3.34,0,0,1,.58,1.09,4.88,4.88,0,0,1,.19,1.42v5.8H318v-5.8a2.43,2.43,0,0,0-.47-1.61,1.76,1.76,0,0,0-1.44-.57,2.66,2.66,0,0,0-1.33.34,4.48,4.48,0,0,0-1.14.93v6.71Z" /><path class="cls-2" d="M322.38,177.45V169.7l-1-.11a.81.81,0,0,1-.31-.14.35.35,0,0,1-.12-.28v-.65h1.44V168a4.17,4.17,0,0,1,.26-1.53,3,3,0,0,1,.78-1.2,3.6,3.6,0,0,1,1.3-.79,5.5,5.5,0,0,1,1.81-.28,5.62,5.62,0,0,1,.7,0,3.17,3.17,0,0,1,.62.14l-.06.83a.16.16,0,0,1-.1.15.91.91,0,0,1-.27,0H327a3.36,3.36,0,0,0-2.31.66,2.53,2.53,0,0,0-.73,2v.46h5.51v8.93h-1.6v-7.77H324v7.77Z" /><path class="cls-2" d="M335.34,168.18a5,5,0,0,1,1.12.13,3.73,3.73,0,0,1,.94.39h2.47v.59c0,.2-.12.32-.38.38l-1,.14a2.82,2.82,0,0,1-.66,3.45,3.32,3.32,0,0,1-1.08.59,4.34,4.34,0,0,1-1.38.21,4.7,4.7,0,0,1-1.2-.15,1.44,1.44,0,0,0-.44.4.72.72,0,0,0-.15.42.56.56,0,0,0,.26.5,1.8,1.8,0,0,0,.7.25,5.78,5.78,0,0,0,1,.07h1.12a7,7,0,0,1,1.12.1,3.53,3.53,0,0,1,1,.33,1.75,1.75,0,0,1,.69.63,1.82,1.82,0,0,1,.27,1,2.41,2.41,0,0,1-.3,1.15,3,3,0,0,1-.84,1,4.33,4.33,0,0,1-1.34.69,5.86,5.86,0,0,1-1.79.26,7,7,0,0,1-1.75-.2,4.13,4.13,0,0,1-1.25-.53,2.25,2.25,0,0,1-.74-.77,1.79,1.79,0,0,1-.25-.92,1.64,1.64,0,0,1,.43-1.15,3,3,0,0,1,1.17-.75,1.63,1.63,0,0,1-.61-.48,1.25,1.25,0,0,1-.23-.8,1.22,1.22,0,0,1,.07-.41,1.7,1.7,0,0,1,.22-.42,2.19,2.19,0,0,1,.36-.39,2.66,2.66,0,0,1,.51-.34,2.68,2.68,0,0,1-1.44-2.46,2.65,2.65,0,0,1,.26-1.21,2.51,2.51,0,0,1,.71-.93,3.27,3.27,0,0,1,1.09-.59A4.45,4.45,0,0,1,335.34,168.18Zm2.85,9.74a.82.82,0,0,0-.19-.57,1.31,1.31,0,0,0-.51-.32,3.77,3.77,0,0,0-.75-.17,6.33,6.33,0,0,0-.89-.06h-1a3.46,3.46,0,0,1-.92-.12,2.82,2.82,0,0,0-.84.6,1.2,1.2,0,0,0-.31.84,1.16,1.16,0,0,0,.15.57,1.36,1.36,0,0,0,.49.46,2.54,2.54,0,0,0,.81.3,4.92,4.92,0,0,0,1.16.12,5.11,5.11,0,0,0,1.16-.12,2.87,2.87,0,0,0,.87-.34,1.8,1.8,0,0,0,.54-.52A1.24,1.24,0,0,0,338.19,177.92ZM335.34,173a2.46,2.46,0,0,0,.86-.14,1.66,1.66,0,0,0,.63-.38,1.54,1.54,0,0,0,.38-.58,2.17,2.17,0,0,0,.12-.74,1.8,1.8,0,0,0-.5-1.33,2.06,2.06,0,0,0-1.49-.5,2,2,0,0,0-1.47.5,1.76,1.76,0,0,0-.51,1.33,2,2,0,0,0,.14.74,1.43,1.43,0,0,0,.38.58,1.62,1.62,0,0,0,.62.38A2.42,2.42,0,0,0,335.34,173Z" /><path class="cls-2" d="M342.86,168.34v5.81a2.41,2.41,0,0,0,.48,1.6,1.75,1.75,0,0,0,1.44.57,2.78,2.78,0,0,0,1.32-.33,4.48,4.48,0,0,0,1.14-.93v-6.72h1.6v9.11h-.95a.4.4,0,0,1-.43-.33l-.13-1A5,5,0,0,1,346,177.2a3.57,3.57,0,0,1-1.69.4,3.38,3.38,0,0,1-1.32-.25,2.71,2.71,0,0,1-1-.7,2.92,2.92,0,0,1-.58-1.09,4.76,4.76,0,0,1-.19-1.41v-5.81Z" /><path class="cls-2" d="M351.48,177.45v-9.11h.92a.5.5,0,0,1,.36.1.52.52,0,0,1,.13.34l.11,1.42a4.14,4.14,0,0,1,1.16-1.49,2.54,2.54,0,0,1,1.61-.54,2.45,2.45,0,0,1,.69.09,2.87,2.87,0,0,1,.57.24l-.21,1.19a.28.28,0,0,1-.28.23,1.43,1.43,0,0,1-.39-.09,2.68,2.68,0,0,0-.73-.08,2.11,2.11,0,0,0-1.4.48,3.74,3.74,0,0,0-.94,1.42v5.8Z" /><path class="cls-2" d="M365.09,177.45h-.71a.83.83,0,0,1-.38-.07.39.39,0,0,1-.19-.31l-.18-.84c-.24.21-.47.41-.7.58a4.42,4.42,0,0,1-.72.43,3.5,3.5,0,0,1-.81.27,4.58,4.58,0,0,1-.95.09,3.21,3.21,0,0,1-1-.15,2.29,2.29,0,0,1-.81-.45,2.33,2.33,0,0,1-.54-.75,2.6,2.6,0,0,1-.2-1.08,2.13,2.13,0,0,1,.29-1,2.69,2.69,0,0,1,1-.89,6.32,6.32,0,0,1,1.74-.63,11.42,11.42,0,0,1,2.61-.25v-.72a2.47,2.47,0,0,0-.45-1.61,1.63,1.63,0,0,0-1.35-.55,2.81,2.81,0,0,0-1,.15,3.71,3.71,0,0,0-.69.33l-.51.33a.72.72,0,0,1-.42.15.51.51,0,0,1-.28-.08.63.63,0,0,1-.19-.21l-.29-.52a5.3,5.3,0,0,1,1.63-1.09,5,5,0,0,1,1.93-.36,3.4,3.4,0,0,1,1.36.26,2.66,2.66,0,0,1,1,.7,3,3,0,0,1,.61,1.09,4.42,4.42,0,0,1,.21,1.4Zm-4.16-1a3.81,3.81,0,0,0,.78-.08,3.09,3.09,0,0,0,.66-.25,3.47,3.47,0,0,0,.59-.38,5.2,5.2,0,0,0,.55-.51v-1.88a10.23,10.23,0,0,0-1.88.14,5.32,5.32,0,0,0-1.26.36,1.67,1.67,0,0,0-.7.54,1.12,1.12,0,0,0-.22.69,1.64,1.64,0,0,0,.11.62,1.27,1.27,0,0,0,.32.43,1.23,1.23,0,0,0,.47.24A1.81,1.81,0,0,0,360.93,176.47Z" /><path class="cls-2" d="M367.57,177.45V164.2h1.61v5.45a4.85,4.85,0,0,1,1.3-1.06,3.53,3.53,0,0,1,1.68-.4,3.3,3.3,0,0,1,1.43.3,2.83,2.83,0,0,1,1.09.89,4.35,4.35,0,0,1,.7,1.45,7.59,7.59,0,0,1,.24,2,6.26,6.26,0,0,1-.27,1.87,4.6,4.6,0,0,1-.78,1.51,3.63,3.63,0,0,1-1.24,1,3.58,3.58,0,0,1-1.65.37,3.14,3.14,0,0,1-1.5-.34,3.5,3.5,0,0,1-1.08-1l-.08.83a.38.38,0,0,1-.41.34Zm4.07-8a2.57,2.57,0,0,0-1.37.36,4,4,0,0,0-1.09,1v4.41a2.55,2.55,0,0,0,1,.83,2.68,2.68,0,0,0,1.18.25,2.33,2.33,0,0,0,2-.91,4.22,4.22,0,0,0,.68-2.59,6.7,6.7,0,0,0-.15-1.53,3,3,0,0,0-.46-1.05,1.68,1.68,0,0,0-.73-.6A2.35,2.35,0,0,0,371.64,169.47Z" /><path class="cls-2" d="M379.36,164.2v13.25h-1.6V164.2Z" /><path class="cls-2" d="M385.8,168.19a3.94,3.94,0,0,1,1.51.28,3.35,3.35,0,0,1,1.2.79,3.5,3.5,0,0,1,.78,1.28,4.86,4.86,0,0,1,.29,1.73,1.07,1.07,0,0,1-.08.5.34.34,0,0,1-.31.13h-6.07a5,5,0,0,0,.24,1.5,3.06,3.06,0,0,0,.59,1.07,2.48,2.48,0,0,0,.9.64,3.13,3.13,0,0,0,1.17.21,3.54,3.54,0,0,0,1-.14,4.5,4.5,0,0,0,.75-.3c.21-.11.39-.21.53-.3a.64.64,0,0,1,.37-.14.34.34,0,0,1,.3.15l.45.58a3.08,3.08,0,0,1-.71.63,4.61,4.61,0,0,1-.89.44,5.31,5.31,0,0,1-1,.25,5.72,5.72,0,0,1-1,.09,4.68,4.68,0,0,1-1.74-.32,3.85,3.85,0,0,1-1.38-.94,4.18,4.18,0,0,1-.9-1.52,6.11,6.11,0,0,1-.33-2.09,5.4,5.4,0,0,1,.29-1.78,4.48,4.48,0,0,1,.84-1.44,4,4,0,0,1,1.35-1A4.38,4.38,0,0,1,385.8,168.19Zm0,1.18A2.43,2.43,0,0,0,384,170a3.15,3.15,0,0,0-.83,1.86h5a3.31,3.31,0,0,0-.15-1,2.49,2.49,0,0,0-.45-.8,1.91,1.91,0,0,0-.73-.52A2.32,2.32,0,0,0,385.83,169.37Z" /><path class="cls-2" d="M298.49,194.25c.07.15.13.31.19.48.06-.17.12-.33.19-.48a5,5,0,0,1,.22-.47l4.37-7.93a.53.53,0,0,1,.24-.25,1.19,1.19,0,0,1,.36,0h1.29v12.89h-1.53V189c0-.13,0-.27,0-.41s0-.29,0-.44l-4.42,8.06a.68.68,0,0,1-.63.41h-.25a.7.7,0,0,1-.63-.41l-4.51-8.09c0,.16,0,.31,0,.46s0,.29,0,.42v9.47h-1.53V185.56h1.29a1.19,1.19,0,0,1,.36,0,.53.53,0,0,1,.24.25l4.45,7.94A2.77,2.77,0,0,1,298.49,194.25Z" /><path class="cls-2" d="M319.1,198.45h-1.35a.63.63,0,0,1-.38-.11.71.71,0,0,1-.21-.3L316,194.92h-5.79L309,198a.75.75,0,0,1-.22.29.6.6,0,0,1-.38.12H307l5.16-12.89h1.77Zm-8.45-4.79h4.81l-2-5.24a11.14,11.14,0,0,1-.39-1.22c-.06.25-.13.48-.19.68s-.13.39-.19.55Z" /><path class="cls-2" d="M329.44,195.79a.35.35,0,0,1,.26.12l.69.74a5.5,5.5,0,0,1-1.93,1.43,6.41,6.41,0,0,1-2.72.52,6.27,6.27,0,0,1-2.53-.49,5.62,5.62,0,0,1-1.93-1.34,6,6,0,0,1-1.24-2.09,7.63,7.63,0,0,1-.45-2.67,7.21,7.21,0,0,1,.48-2.67,6.16,6.16,0,0,1,1.32-2.09,6,6,0,0,1,2.05-1.36,7,7,0,0,1,2.64-.48,6.31,6.31,0,0,1,2.45.44,6.44,6.44,0,0,1,1.83,1.2l-.57.8a.67.67,0,0,1-.14.15.4.4,0,0,1-.24.06.42.42,0,0,1-.24-.09,2.85,2.85,0,0,1-.31-.21l-.43-.27a3.81,3.81,0,0,0-.57-.27,5.79,5.79,0,0,0-.78-.21,5.05,5.05,0,0,0-1-.09,4.87,4.87,0,0,0-1.9.36,4.24,4.24,0,0,0-1.48,1,4.67,4.67,0,0,0-1,1.6,6.16,6.16,0,0,0-.34,2.12,6.26,6.26,0,0,0,.34,2.15,4.79,4.79,0,0,0,.95,1.6,4,4,0,0,0,1.42,1,4.45,4.45,0,0,0,1.76.34,7.94,7.94,0,0,0,1-.06,4.51,4.51,0,0,0,.86-.22,3,3,0,0,0,.72-.36,4.64,4.64,0,0,0,.68-.53A.46.46,0,0,1,329.44,195.79Z" /><path class="cls-2" d="M344.1,185.56V187h-6.19v4.28h5v1.37h-5V197h6.19v1.42h-8V185.56Z" /><path class="cls-2" d="M346.36,198.45v-9.11h.95a.41.41,0,0,1,.44.33l.12,1a5.13,5.13,0,0,1,1.33-1.06,3.45,3.45,0,0,1,1.7-.41,3.19,3.19,0,0,1,1.31.25,2.52,2.52,0,0,1,1,.7,3.16,3.16,0,0,1,.58,1.09,4.87,4.87,0,0,1,.2,1.42v5.8h-1.6v-5.8a2.44,2.44,0,0,0-.48-1.61,1.75,1.75,0,0,0-1.44-.57,2.66,2.66,0,0,0-1.33.34,4.48,4.48,0,0,0-1.14.93v6.71Z" /><path class="cls-2" d="M359.44,189.18a5,5,0,0,1,1.11.13,3.58,3.58,0,0,1,.94.39H364v.59c0,.2-.12.32-.37.38l-1,.14a2.93,2.93,0,0,1,.05,2.52,2.81,2.81,0,0,1-.71.93,3.13,3.13,0,0,1-1.08.59,4.28,4.28,0,0,1-1.37.21,4.72,4.72,0,0,1-1.21-.15,1.44,1.44,0,0,0-.44.4.78.78,0,0,0-.14.42.54.54,0,0,0,.26.5,1.69,1.69,0,0,0,.69.25,5.86,5.86,0,0,0,1,.07h1.12a6.86,6.86,0,0,1,1.12.1,3.42,3.42,0,0,1,1,.33,1.85,1.85,0,0,1,.7.63,1.91,1.91,0,0,1,.26,1,2.41,2.41,0,0,1-.3,1.15,3,3,0,0,1-.84,1,4.33,4.33,0,0,1-1.34.69,5.81,5.81,0,0,1-1.79.26,7,7,0,0,1-1.75-.2,4.13,4.13,0,0,1-1.25-.53,2.35,2.35,0,0,1-.74-.77,1.9,1.9,0,0,1-.25-.92,1.69,1.69,0,0,1,.43-1.15,3.08,3.08,0,0,1,1.18-.75,1.59,1.59,0,0,1-.62-.48,1.31,1.31,0,0,1-.23-.8,1.22,1.22,0,0,1,.07-.41,1.7,1.7,0,0,1,.22-.42,1.93,1.93,0,0,1,.37-.39,2.31,2.31,0,0,1,.5-.34,2.68,2.68,0,0,1-1.44-2.46,2.79,2.79,0,0,1,.26-1.21A2.62,2.62,0,0,1,357,190a3.22,3.22,0,0,1,1.1-.59A4.36,4.36,0,0,1,359.44,189.18Zm2.84,9.74a.82.82,0,0,0-.19-.57,1.18,1.18,0,0,0-.51-.32,3.77,3.77,0,0,0-.75-.17,6.33,6.33,0,0,0-.89-.06H359a3.48,3.48,0,0,1-.93-.12,2.65,2.65,0,0,0-.83.6,1.16,1.16,0,0,0-.32.84,1.07,1.07,0,0,0,.16.57,1.25,1.25,0,0,0,.48.46,2.64,2.64,0,0,0,.81.3,4.92,4.92,0,0,0,1.16.12,5.11,5.11,0,0,0,1.16-.12,2.87,2.87,0,0,0,.87-.34,1.59,1.59,0,0,0,.54-.52A1.24,1.24,0,0,0,362.28,198.92ZM359.44,194a2.54,2.54,0,0,0,.86-.14,1.62,1.62,0,0,0,.62-.38,1.43,1.43,0,0,0,.38-.58,2.17,2.17,0,0,0,.13-.74,1.76,1.76,0,0,0-.51-1.33,2.05,2.05,0,0,0-1.48-.5,2,2,0,0,0-1.47.5,1.76,1.76,0,0,0-.51,1.33,2,2,0,0,0,.13.74,1.43,1.43,0,0,0,.38.58,1.7,1.7,0,0,0,.62.38A2.48,2.48,0,0,0,359.44,194Z" /><path class="cls-2" d="M367.71,186.47a1,1,0,0,1-.1.44,1,1,0,0,1-.25.36,1.1,1.1,0,0,1-.8.34,1,1,0,0,1-.44-.09,1.23,1.23,0,0,1-.61-.61,1.08,1.08,0,0,1-.09-.44,1.12,1.12,0,0,1,.09-.44,1.05,1.05,0,0,1,.25-.37,1,1,0,0,1,.36-.25,1,1,0,0,1,.44-.09,1.1,1.1,0,0,1,.8.34,1.05,1.05,0,0,1,.25.37A1,1,0,0,1,367.71,186.47Zm-.36,2.87v9.11h-1.6v-9.11Z" /><path class="cls-2" d="M370.17,198.45v-9.11h1a.4.4,0,0,1,.43.33l.13,1A4.93,4.93,0,0,1,373,189.6a3.48,3.48,0,0,1,1.7-.41,3.21,3.21,0,0,1,1.32.25,2.48,2.48,0,0,1,1,.7,3,3,0,0,1,.58,1.09,4.56,4.56,0,0,1,.2,1.42v5.8h-1.6v-5.8a2.49,2.49,0,0,0-.47-1.61,1.78,1.78,0,0,0-1.45-.57,2.65,2.65,0,0,0-1.32.34,4.16,4.16,0,0,0-1.14.93v6.71Z" /><path class="cls-2" d="M383.79,189.19a3.9,3.9,0,0,1,1.51.28,3.35,3.35,0,0,1,1.2.79,3.51,3.51,0,0,1,.79,1.28,4.87,4.87,0,0,1,.28,1.73,1.07,1.07,0,0,1-.08.5.33.33,0,0,1-.31.13h-6.06a5,5,0,0,0,.23,1.5,3.08,3.08,0,0,0,.6,1.07,2.4,2.4,0,0,0,.9.64,3.05,3.05,0,0,0,1.17.21,3.59,3.59,0,0,0,1-.14,4.5,4.5,0,0,0,.75-.3c.21-.11.38-.21.52-.3a.66.66,0,0,1,.37-.14.34.34,0,0,1,.3.15l.45.58a2.89,2.89,0,0,1-.71.63,4.52,4.52,0,0,1-.88.44,5.42,5.42,0,0,1-1,.25,5.72,5.72,0,0,1-1,.09,4.68,4.68,0,0,1-1.74-.32,3.85,3.85,0,0,1-1.38-.94,4.32,4.32,0,0,1-.9-1.52,6.11,6.11,0,0,1-.33-2.09,5.16,5.16,0,0,1,.3-1.78,4.14,4.14,0,0,1,.84-1.44,3.84,3.84,0,0,1,1.34-1A4.42,4.42,0,0,1,383.79,189.19Zm0,1.18A2.44,2.44,0,0,0,382,191a3.21,3.21,0,0,0-.83,1.86h5a3.31,3.31,0,0,0-.15-1,2.16,2.16,0,0,0-.45-.8,1.91,1.91,0,0,0-.73-.52A2.3,2.3,0,0,0,383.83,190.37Z" /><path class="cls-2" d="M273.73,386.53a.3.3,0,0,1,.21.1l.57.63a4.63,4.63,0,0,1-1.6,1.19,5.54,5.54,0,0,1-2.27.42,5.28,5.28,0,0,1-2.1-.4,4.62,4.62,0,0,1-1.62-1.12,5,5,0,0,1-1-1.74,6.36,6.36,0,0,1-.37-2.23,6.13,6.13,0,0,1,.39-2.22,5,5,0,0,1,1.11-1.74,4.91,4.91,0,0,1,1.71-1.13,5.73,5.73,0,0,1,2.19-.4,5,5,0,0,1,3.57,1.36l-.47.67a.68.68,0,0,1-.12.12.3.3,0,0,1-.2,0,.35.35,0,0,1-.2-.07l-.26-.17a3.54,3.54,0,0,0-.35-.23,3.59,3.59,0,0,0-.48-.23,6,6,0,0,0-.65-.17,4.68,4.68,0,0,0-2.43.22,3.62,3.62,0,0,0-1.23.85,4,4,0,0,0-.81,1.33,5.2,5.2,0,0,0-.28,1.76,5.31,5.31,0,0,0,.28,1.8,4.15,4.15,0,0,0,.79,1.33,3.37,3.37,0,0,0,1.18.83,3.81,3.81,0,0,0,1.47.28,7.57,7.57,0,0,0,.87-.05,3.58,3.58,0,0,0,.7-.18,3.14,3.14,0,0,0,.61-.3,5.46,5.46,0,0,0,.57-.44A.37.37,0,0,1,273.73,386.53Z" /><path class="cls-2" d="M279.29,381a3.93,3.93,0,0,1,1.5.27,3.2,3.2,0,0,1,1.14.79,3.25,3.25,0,0,1,.72,1.24,5.15,5.15,0,0,1,0,3.23,3.28,3.28,0,0,1-.72,1.23,3.2,3.2,0,0,1-1.14.79,4.3,4.3,0,0,1-3,0,3.33,3.33,0,0,1-1.15-.79,3.42,3.42,0,0,1-.72-1.23,5.15,5.15,0,0,1,0-3.23,3.38,3.38,0,0,1,.72-1.24,3.33,3.33,0,0,1,1.15-.79A4,4,0,0,1,279.29,381Zm0,6.78a1.94,1.94,0,0,0,1.68-.76,4.24,4.24,0,0,0,0-4.21,1.94,1.94,0,0,0-1.68-.76,2.33,2.33,0,0,0-1,.19,1.84,1.84,0,0,0-.7.57,2.35,2.35,0,0,0-.42.9,5.3,5.3,0,0,0,0,2.42,2.37,2.37,0,0,0,.42.89,1.81,1.81,0,0,0,.7.56A2.33,2.33,0,0,0,279.29,387.82Z" /><path class="cls-2" d="M284.56,388.76v-7.6h.79a.34.34,0,0,1,.36.28l.11.82a4.22,4.22,0,0,1,1.1-.89,2.94,2.94,0,0,1,1.41-.33,2.84,2.84,0,0,1,1.1.2,2.17,2.17,0,0,1,.8.59,2.55,2.55,0,0,1,.48.91,4,4,0,0,1,.17,1.18v4.84h-1.34v-4.84a2.06,2.06,0,0,0-.39-1.34,1.46,1.46,0,0,0-1.2-.48,2.24,2.24,0,0,0-1.11.29,3.78,3.78,0,0,0-.95.77v5.6Z" /><path class="cls-2" d="M295.2,388.87a1.84,1.84,0,0,1-1.39-.5,2,2,0,0,1-.48-1.44v-4.66h-.91a.3.3,0,0,1-.21-.07.28.28,0,0,1-.08-.22v-.53l1.25-.16.3-2.35a.27.27,0,0,1,.1-.18.3.3,0,0,1,.21-.07h.68v2.62h2.17v1h-2.17v4.57a1,1,0,0,0,.23.71.81.81,0,0,0,.6.23,1,1,0,0,0,.36-.06,1.69,1.69,0,0,0,.27-.12l.19-.12a.24.24,0,0,1,.14-.06.23.23,0,0,1,.19.13l.39.64a2.6,2.6,0,0,1-.84.5A2.85,2.85,0,0,1,295.2,388.87Z" /><path class="cls-2" d="M298.49,388.76v-7.6h.76a.43.43,0,0,1,.3.08.46.46,0,0,1,.12.28l.09,1.19a3.51,3.51,0,0,1,1-1.24,2.11,2.11,0,0,1,1.35-.45,1.94,1.94,0,0,1,1,.27l-.17,1a.22.22,0,0,1-.23.19,1.5,1.5,0,0,1-.33-.07,1.92,1.92,0,0,0-.61-.07,1.71,1.71,0,0,0-1.16.4,3,3,0,0,0-.78,1.18v4.84Z" /><path class="cls-2" d="M307.61,381a3.93,3.93,0,0,1,1.5.27,3.2,3.2,0,0,1,1.14.79,3.25,3.25,0,0,1,.72,1.24,5.34,5.34,0,0,1,0,3.23,3.28,3.28,0,0,1-.72,1.23,3.2,3.2,0,0,1-1.14.79,4.3,4.3,0,0,1-3,0,3.33,3.33,0,0,1-1.15-.79,3.59,3.59,0,0,1-.73-1.23,5.34,5.34,0,0,1,0-3.23,3.54,3.54,0,0,1,.73-1.24,3.33,3.33,0,0,1,1.15-.79A3.93,3.93,0,0,1,307.61,381Zm0,6.78a1.94,1.94,0,0,0,1.68-.76,4.3,4.3,0,0,0,0-4.21,1.94,1.94,0,0,0-1.68-.76,2.33,2.33,0,0,0-1,.19,1.84,1.84,0,0,0-.7.57,2.35,2.35,0,0,0-.42.9,5.3,5.3,0,0,0,0,2.42,2.37,2.37,0,0,0,.42.89,1.81,1.81,0,0,0,.7.56A2.33,2.33,0,0,0,307.61,387.82Z" /><path class="cls-2" d="M314.36,377.71v11.05H313V377.71Z" /><path class="cls-2" d="M324,387.6a3,3,0,0,0,1.19-.23,2.46,2.46,0,0,0,.89-.62,2.81,2.81,0,0,0,.55-1,3.79,3.79,0,0,0,.19-1.24V378h1.45v6.53a5.11,5.11,0,0,1-.29,1.73,4.11,4.11,0,0,1-.85,1.37,3.88,3.88,0,0,1-1.35.91,4.59,4.59,0,0,1-1.78.33,4.64,4.64,0,0,1-1.79-.33,3.88,3.88,0,0,1-1.35-.91,4.11,4.11,0,0,1-.85-1.37,4.87,4.87,0,0,1-.3-1.73V378h1.45v6.52a4.08,4.08,0,0,0,.19,1.24,2.9,2.9,0,0,0,.56,1,2.48,2.48,0,0,0,.89.63A3,3,0,0,0,324,387.6Z" /><path class="cls-2" d="M330.56,388.76v-7.6h.79a.34.34,0,0,1,.36.28l.11.82a4.27,4.27,0,0,1,1.11-.89,2.88,2.88,0,0,1,1.41-.33,2.92,2.92,0,0,1,1.1.2,2.22,2.22,0,0,1,.79.59,2.42,2.42,0,0,1,.49.91,4,4,0,0,1,.16,1.18v4.84h-1.33v-4.84a2,2,0,0,0-.4-1.34,1.46,1.46,0,0,0-1.2-.48,2.27,2.27,0,0,0-1.11.29,3.78,3.78,0,0,0-.95.77v5.6Z" /><path class="cls-2" d="M340.68,378.77a.94.94,0,0,1-.07.37,1.61,1.61,0,0,1-.21.3,1.1,1.1,0,0,1-.31.2.91.91,0,0,1-.37.08.86.86,0,0,1-.36-.08,1.21,1.21,0,0,1-.3-.2,1,1,0,0,1-.21-.3,1,1,0,0,1,.21-1.05,1.21,1.21,0,0,1,.3-.2.86.86,0,0,1,.36-.08.91.91,0,0,1,.37.08,1.1,1.1,0,0,1,.31.2,1.41,1.41,0,0,1,.21.31A.94.94,0,0,1,340.68,378.77Zm-.3,2.39v7.6h-1.33v-7.6Z" /><path class="cls-2" d="M345,388.87a1.8,1.8,0,0,1-1.38-.5,2,2,0,0,1-.49-1.44v-4.66h-.91a.27.27,0,0,1-.2-.07A.25.25,0,0,1,342,382v-.53l1.25-.16.31-2.35a.31.31,0,0,1,.09-.18.31.31,0,0,1,.21-.07h.68v2.62h2.17v1h-2.17v4.57a1,1,0,0,0,.23.71.85.85,0,0,0,.6.23,1.06,1.06,0,0,0,.37-.06,1.26,1.26,0,0,0,.26-.12l.19-.12a.24.24,0,0,1,.14-.06.23.23,0,0,1,.19.13l.39.64a2.56,2.56,0,0,1-.83.5A2.91,2.91,0,0,1,345,388.87Z" /><path class="cls-2" d="M394.29,383.38a6.15,6.15,0,0,1-.38,2.2,5,5,0,0,1-1.08,1.7,4.93,4.93,0,0,1-1.68,1.09,5.77,5.77,0,0,1-2.16.39h-4V378h4a6,6,0,0,1,2.16.38,5,5,0,0,1,1.68,1.1,5,5,0,0,1,1.08,1.7A6.14,6.14,0,0,1,394.29,383.38Zm-1.49,0a5.39,5.39,0,0,0-.27-1.77,3.93,3.93,0,0,0-.77-1.32,3.37,3.37,0,0,0-1.2-.82,4.14,4.14,0,0,0-1.57-.28h-2.55v8.39H389a4.14,4.14,0,0,0,1.57-.29,3.25,3.25,0,0,0,1.2-.82,3.69,3.69,0,0,0,.77-1.31A5.5,5.5,0,0,0,392.8,383.38Z" /><path class="cls-2" d="M401.74,385.25l.15.4c.05-.14.11-.27.16-.4s.12-.26.19-.39l3.64-6.6a.44.44,0,0,1,.2-.22,1.15,1.15,0,0,1,.3,0h1.07v10.75h-1.27v-8.24l0-.37-3.69,6.72a.57.57,0,0,1-.52.34h-.21a.58.58,0,0,1-.53-.34l-3.76-6.74c0,.13,0,.26,0,.38s0,.24,0,.35v7.9h-1.27V378h1.07a1.15,1.15,0,0,1,.3,0,.44.44,0,0,1,.2.22l3.72,6.61A2.64,2.64,0,0,1,401.74,385.25Z" /><path class="cls-2" d="M418.91,388.76h-1.12a.53.53,0,0,1-.32-.1.64.64,0,0,1-.18-.25l-1-2.6h-4.83l-1,2.6a.69.69,0,0,1-.18.24.5.5,0,0,1-.32.11h-1.12l4.3-10.75h1.47Zm-7-4h4l-1.69-4.38a9.46,9.46,0,0,1-.32-1c-.05.21-.11.39-.16.57s-.1.32-.15.45Z" /><rect class="cls-6" x="251.4" y="252.2" width="178.36" height="27.3" /><path class="cls-2" d="M282.57,260.21v1.19h-5.16V265h4.18v1.14h-4.18v3.67h5.16V271H276V260.21Z" /><path class="cls-2" d="M285.94,259.91v11h-1.33v-11Z" /><path class="cls-2" d="M291.3,263.24a3.4,3.4,0,0,1,1.26.23,2.73,2.73,0,0,1,1,.66,3,3,0,0,1,.66,1.07,4,4,0,0,1,.23,1.44,1,1,0,0,1-.06.42.29.29,0,0,1-.26.11h-5.05a4.26,4.26,0,0,0,.19,1.25,2.65,2.65,0,0,0,.5.89,2.09,2.09,0,0,0,.75.53,2.5,2.5,0,0,0,1,.18,2.81,2.81,0,0,0,.87-.12,4.19,4.19,0,0,0,.62-.25c.18-.09.32-.18.44-.25a.58.58,0,0,1,.31-.12.28.28,0,0,1,.25.13l.38.48a2.54,2.54,0,0,1-.6.53,3.63,3.63,0,0,1-.74.36,3.71,3.71,0,0,1-.81.21,4.76,4.76,0,0,1-.83.08,3.78,3.78,0,0,1-1.45-.27,3.17,3.17,0,0,1-1.15-.78,3.63,3.63,0,0,1-.75-1.27,5.21,5.21,0,0,1-.27-1.74,4.52,4.52,0,0,1,.24-1.49,3.44,3.44,0,0,1,.7-1.19,3.23,3.23,0,0,1,1.12-.8A3.69,3.69,0,0,1,291.3,263.24Zm0,1a2.06,2.06,0,0,0-1.52.55,2.66,2.66,0,0,0-.69,1.55h4.13a2.86,2.86,0,0,0-.12-.85,1.92,1.92,0,0,0-.38-.67,1.74,1.74,0,0,0-.6-.43A2.1,2.1,0,0,0,291.33,264.23Z" /><path class="cls-2" d="M296.16,271v-7.6H297a.35.35,0,0,1,.36.28l.1.78a4,4,0,0,1,.94-.85,2.22,2.22,0,0,1,1.21-.33,1.82,1.82,0,0,1,1.25.43,2.41,2.41,0,0,1,.69,1.16,2.3,2.3,0,0,1,.41-.72,2.44,2.44,0,0,1,.58-.49,2.6,2.6,0,0,1,.69-.29,3.06,3.06,0,0,1,.74-.09,3,3,0,0,1,1.07.19,2.23,2.23,0,0,1,.79.56,2.43,2.43,0,0,1,.5.91,3.79,3.79,0,0,1,.17,1.22V271h-1.33v-4.84a2.05,2.05,0,0,0-.39-1.35,1.39,1.39,0,0,0-1.13-.46,1.9,1.9,0,0,0-.63.11,1.54,1.54,0,0,0-.52.35,1.59,1.59,0,0,0-.36.56,2.15,2.15,0,0,0-.13.79V271h-1.33v-4.84a2.14,2.14,0,0,0-.37-1.36,1.31,1.31,0,0,0-1.07-.45,1.75,1.75,0,0,0-.92.26,3,3,0,0,0-.78.73V271Z" /><path class="cls-2" d="M311.48,263.24a3.48,3.48,0,0,1,1.26.23,2.82,2.82,0,0,1,1,.66,3,3,0,0,1,.65,1.07,4,4,0,0,1,.24,1.44.81.81,0,0,1-.07.42.27.27,0,0,1-.25.11h-5.06a4.25,4.25,0,0,0,.2,1.25,2.63,2.63,0,0,0,.49.89,2.09,2.09,0,0,0,.75.53,2.55,2.55,0,0,0,1,.18,2.75,2.75,0,0,0,.86-.12,4.86,4.86,0,0,0,.63-.25l.44-.25a.55.55,0,0,1,.3-.12.29.29,0,0,1,.26.13l.37.48a2.31,2.31,0,0,1-.59.53,3.9,3.9,0,0,1-.74.36,3.71,3.71,0,0,1-.81.21,4.78,4.78,0,0,1-.84.08,3.82,3.82,0,0,1-1.45-.27A3.35,3.35,0,0,1,309,270a3.63,3.63,0,0,1-.75-1.27,5.21,5.21,0,0,1-.27-1.74,4.52,4.52,0,0,1,.24-1.49,3.46,3.46,0,0,1,.71-1.19,3.1,3.1,0,0,1,1.11-.8A3.74,3.74,0,0,1,311.48,263.24Zm0,1a2,2,0,0,0-1.52.55,2.66,2.66,0,0,0-.69,1.55h4.13a2.57,2.57,0,0,0-.13-.85,1.9,1.9,0,0,0-.37-.67,1.78,1.78,0,0,0-.61-.43A2.09,2.09,0,0,0,311.51,264.23Z" /><path class="cls-2" d="M316.33,271v-7.6h.8a.35.35,0,0,1,.36.28l.1.83a4.27,4.27,0,0,1,1.11-.89,2.8,2.8,0,0,1,1.41-.34,2.7,2.7,0,0,1,1.1.21,2.11,2.11,0,0,1,.79.58,2.54,2.54,0,0,1,.49.92,3.9,3.9,0,0,1,.16,1.17V271h-1.33v-4.84a2,2,0,0,0-.4-1.34,1.48,1.48,0,0,0-1.2-.47,2.29,2.29,0,0,0-1.11.28,3.58,3.58,0,0,0-.94.78V271Z" /><path class="cls-2" d="M327,271.08a1.84,1.84,0,0,1-1.38-.5,2,2,0,0,1-.48-1.45v-4.65h-.92a.27.27,0,0,1-.2-.07.26.26,0,0,1-.08-.22v-.53l1.24-.16.31-2.35a.25.25,0,0,1,.1-.18.29.29,0,0,1,.21-.08h.67v2.62h2.18v1h-2.18V269a1,1,0,0,0,.23.71.81.81,0,0,0,.6.24,1.06,1.06,0,0,0,.37-.06l.26-.12.19-.13a.24.24,0,0,1,.14-.05.23.23,0,0,1,.19.12l.39.64a2.58,2.58,0,0,1-.83.51A2.91,2.91,0,0,1,327,271.08Z" /><path class="cls-2" d="M329.28,263.36h1.05a.36.36,0,0,1,.26.09.39.39,0,0,1,.15.19l1.45,4.89c0,.18.08.35.11.52s.07.34.1.51c0-.17.08-.34.13-.51s.1-.34.16-.52l1.6-4.92a.5.5,0,0,1,.13-.19.4.4,0,0,1,.24-.07h.58a.41.41,0,0,1,.25.07.5.5,0,0,1,.13.19l1.57,4.92c.05.18.1.35.14.52s.09.34.13.5c0-.16.05-.34.09-.52s.09-.34.13-.5l1.49-4.89a.35.35,0,0,1,.14-.2.41.41,0,0,1,.25-.08h1L338.1,271H337c-.12,0-.21-.08-.26-.25l-1.69-5.16a2,2,0,0,1-.09-.35c0-.11-.05-.23-.08-.35,0,.12-.05.24-.07.36a3.57,3.57,0,0,1-.1.35l-1.7,5.15a.31.31,0,0,1-.31.25h-1Z" /><path class="cls-2" d="M343.54,261a.86.86,0,0,1-.08.36,1.05,1.05,0,0,1-.51.51.94.94,0,0,1-.37.07.86.86,0,0,1-.36-.07.81.81,0,0,1-.3-.21,1,1,0,0,1-.21-.3.86.86,0,0,1-.08-.36.91.91,0,0,1,.08-.37,1,1,0,0,1,.21-.31.81.81,0,0,1,.3-.21.86.86,0,0,1,.36-.07.94.94,0,0,1,.37.07,1,1,0,0,1,.3.21,1,1,0,0,1,.21.31A.91.91,0,0,1,343.54,261Zm-.3,2.38V271h-1.33v-7.6Z" /><path class="cls-2" d="M349.94,264.62a.29.29,0,0,1-.27.16.59.59,0,0,1-.26-.08,3.48,3.48,0,0,0-.35-.19,3,3,0,0,0-.49-.18,2.22,2.22,0,0,0-.67-.09,1.91,1.91,0,0,0-.61.09,1.33,1.33,0,0,0-.46.23,1,1,0,0,0-.29.35.92.92,0,0,0-.11.43.73.73,0,0,0,.17.49,1.61,1.61,0,0,0,.45.34,3.76,3.76,0,0,0,.63.25l.72.23c.25.08.49.18.73.28a2.82,2.82,0,0,1,.63.37,1.7,1.7,0,0,1,.44.55,1.62,1.62,0,0,1,.17.79,2.4,2.4,0,0,1-.19,1,2.06,2.06,0,0,1-.55.77,2.64,2.64,0,0,1-.9.51,3.57,3.57,0,0,1-1.23.19,3.89,3.89,0,0,1-1.44-.26,3.62,3.62,0,0,1-1.1-.66l.32-.51a.41.41,0,0,1,.14-.15.38.38,0,0,1,.22-.05.48.48,0,0,1,.28.1l.37.23a2.3,2.3,0,0,0,.52.24,2.33,2.33,0,0,0,.76.1,2,2,0,0,0,.68-.1,1.64,1.64,0,0,0,.49-.27,1.24,1.24,0,0,0,.29-.4,1.28,1.28,0,0,0,.09-.48.79.79,0,0,0-.17-.52,1.38,1.38,0,0,0-.45-.36,3.76,3.76,0,0,0-.63-.25l-.73-.23c-.24-.08-.49-.17-.72-.27a2.74,2.74,0,0,1-.64-.39,1.74,1.74,0,0,1-.61-1.4,2,2,0,0,1,.18-.84,2,2,0,0,1,.52-.7,2.44,2.44,0,0,1,.85-.49,3.39,3.39,0,0,1,1.15-.18,3.52,3.52,0,0,1,1.34.24,3.16,3.16,0,0,1,1,.65Z" /><path class="cls-2" d="M355.11,263.24a3.4,3.4,0,0,1,1.26.23,2.73,2.73,0,0,1,1,.66,3,3,0,0,1,.66,1.07,4.26,4.26,0,0,1,.23,1.44.81.81,0,0,1-.07.42.27.27,0,0,1-.25.11h-5.06a4.25,4.25,0,0,0,.2,1.25,2.63,2.63,0,0,0,.49.89,2.09,2.09,0,0,0,.75.53,2.55,2.55,0,0,0,1,.18,2.86,2.86,0,0,0,.87-.12,4.19,4.19,0,0,0,.62-.25c.18-.09.32-.18.44-.25a.58.58,0,0,1,.3-.12.29.29,0,0,1,.26.13l.37.48a2.31,2.31,0,0,1-.59.53,3.63,3.63,0,0,1-.74.36,3.71,3.71,0,0,1-.81.21,4.76,4.76,0,0,1-.83.08,3.78,3.78,0,0,1-1.45-.27,3.17,3.17,0,0,1-1.15-.78,3.64,3.64,0,0,1-.76-1.27,5.21,5.21,0,0,1-.27-1.74,4.52,4.52,0,0,1,.25-1.49,3.29,3.29,0,0,1,.7-1.19,3.14,3.14,0,0,1,1.12-.8A3.69,3.69,0,0,1,355.11,263.24Zm0,1a2.06,2.06,0,0,0-1.52.55,2.66,2.66,0,0,0-.69,1.55h4.13a2.57,2.57,0,0,0-.13-.85,1.9,1.9,0,0,0-.37-.67,1.84,1.84,0,0,0-.6-.43A2.1,2.1,0,0,0,355.14,264.23Z" /><path class="cls-2" d="M369.69,260.21v1.19h-5.16V265h4.18v1.14h-4.18v3.67h5.16V271h-6.62V260.21Z" /><path class="cls-2" d="M371.57,271v-7.6h.8a.35.35,0,0,1,.36.28l.1.83a4.27,4.27,0,0,1,1.11-.89,2.83,2.83,0,0,1,1.41-.34,2.67,2.67,0,0,1,1.1.21,2.15,2.15,0,0,1,.8.58,2.68,2.68,0,0,1,.48.92,3.89,3.89,0,0,1,.17,1.17V271h-1.34v-4.84a2.08,2.08,0,0,0-.39-1.34,1.5,1.5,0,0,0-1.21-.47,2.22,2.22,0,0,0-1.1.28,3.62,3.62,0,0,0-.95.78V271Z" /><path class="cls-2" d="M382.47,263.24a4,4,0,0,1,.93.1,3,3,0,0,1,.78.32h2.06v.5c0,.16-.1.27-.31.31l-.86.12a2.33,2.33,0,0,1,.25,1.09,2.29,2.29,0,0,1-.8,1.79,2.8,2.8,0,0,1-.9.49,3.51,3.51,0,0,1-1.15.17,4,4,0,0,1-1-.12,1.34,1.34,0,0,0-.37.33.62.62,0,0,0-.12.35.46.46,0,0,0,.22.42,1.51,1.51,0,0,0,.57.21,5.08,5.08,0,0,0,.82.06h.94a5.84,5.84,0,0,1,.93.08,3.29,3.29,0,0,1,.82.27,1.53,1.53,0,0,1,.57.53,1.5,1.5,0,0,1,.22.86,2.07,2.07,0,0,1-.24,1,2.58,2.58,0,0,1-.7.82,3.59,3.59,0,0,1-1.12.58,4.62,4.62,0,0,1-1.49.22,5.74,5.74,0,0,1-1.46-.17,3.46,3.46,0,0,1-1-.44,2,2,0,0,1-.62-.64,1.5,1.5,0,0,1-.21-.76,1.36,1.36,0,0,1,.36-1,2.52,2.52,0,0,1,1-.63,1.22,1.22,0,0,1-.51-.4,1.14,1.14,0,0,1-.14-1,1.51,1.51,0,0,1,.19-.35,2.24,2.24,0,0,1,.3-.33,1.78,1.78,0,0,1,.42-.27,2.37,2.37,0,0,1-.88-.84,2.34,2.34,0,0,1-.32-1.22,2.3,2.3,0,0,1,.81-1.78,2.75,2.75,0,0,1,.91-.49A3.62,3.62,0,0,1,382.47,263.24Zm2.37,8.11a.65.65,0,0,0-.16-.47.9.9,0,0,0-.42-.27,2.67,2.67,0,0,0-.63-.14,5.74,5.74,0,0,0-.74-.05h-.79a2.88,2.88,0,0,1-.78-.1,2.25,2.25,0,0,0-.69.49,1,1,0,0,0-.27.7.92.92,0,0,0,.14.48,1,1,0,0,0,.4.38,2.15,2.15,0,0,0,.68.26,4.48,4.48,0,0,0,1,.09,4.13,4.13,0,0,0,1-.1,2.35,2.35,0,0,0,.72-.28,1.27,1.27,0,0,0,.45-.44A1,1,0,0,0,384.84,271.35Zm-2.37-4.1a2.27,2.27,0,0,0,.72-.11,1.43,1.43,0,0,0,.52-.32,1.28,1.28,0,0,0,.31-.48,1.8,1.8,0,0,0,.11-.62,1.47,1.47,0,0,0-.42-1.11,1.7,1.7,0,0,0-1.24-.41,1.65,1.65,0,0,0-1.22.41,1.44,1.44,0,0,0-.43,1.11,1.8,1.8,0,0,0,.11.62,1.31,1.31,0,0,0,.32.48,1.43,1.43,0,0,0,.52.32A2.14,2.14,0,0,0,382.47,267.25Z" /><path class="cls-2" d="M389.36,261a.86.86,0,0,1-.07.36,1.61,1.61,0,0,1-.21.3,1,1,0,0,1-.31.21.9.9,0,0,1-.37.07.86.86,0,0,1-.36-.07,1.05,1.05,0,0,1-.51-.51.86.86,0,0,1-.07-.36.9.9,0,0,1,.07-.37,1,1,0,0,1,.21-.31,1,1,0,0,1,.3-.21.86.86,0,0,1,.36-.07.9.9,0,0,1,.37.07,1,1,0,0,1,.31.21,1.41,1.41,0,0,1,.21.31A.9.9,0,0,1,389.36,261Zm-.3,2.38V271h-1.33v-7.6Z" /><path class="cls-2" d="M391.42,271v-7.6h.79a.35.35,0,0,1,.36.28l.11.83a4.27,4.27,0,0,1,1.11-.89,2.78,2.78,0,0,1,1.41-.34,2.73,2.73,0,0,1,1.1.21,2.19,2.19,0,0,1,.79.58,2.7,2.7,0,0,1,.49.92,3.9,3.9,0,0,1,.16,1.17V271h-1.33v-4.84a2.08,2.08,0,0,0-.4-1.34,1.48,1.48,0,0,0-1.2-.47,2.23,2.23,0,0,0-1.11.28,3.62,3.62,0,0,0-.95.78V271Z" /><path class="cls-2" d="M402.77,263.24a3.48,3.48,0,0,1,1.26.23,2.78,2.78,0,0,1,1,.66,3,3,0,0,1,.66,1.07,4,4,0,0,1,.24,1.44.93.93,0,0,1-.07.42.29.29,0,0,1-.26.11h-5a4.26,4.26,0,0,0,.19,1.25,2.65,2.65,0,0,0,.5.89,2.09,2.09,0,0,0,.75.53,2.5,2.5,0,0,0,1,.18,2.77,2.77,0,0,0,.87-.12,4.86,4.86,0,0,0,.63-.25l.43-.25a.58.58,0,0,1,.31-.12.28.28,0,0,1,.25.13l.38.48a2.49,2.49,0,0,1-.59.53,3.9,3.9,0,0,1-.74.36,4,4,0,0,1-.82.21,4.67,4.67,0,0,1-.83.08,3.82,3.82,0,0,1-1.45-.27,3.26,3.26,0,0,1-1.15-.78,3.63,3.63,0,0,1-.75-1.27,5.21,5.21,0,0,1-.27-1.74,4.52,4.52,0,0,1,.24-1.49,3.44,3.44,0,0,1,.7-1.19,3.23,3.23,0,0,1,1.12-.8A3.74,3.74,0,0,1,402.77,263.24Zm0,1a2.07,2.07,0,0,0-1.53.55,2.66,2.66,0,0,0-.69,1.55h4.14a2.86,2.86,0,0,0-.13-.85,1.92,1.92,0,0,0-.38-.67,1.65,1.65,0,0,0-.6-.43A2.09,2.09,0,0,0,402.8,264.23Z" /><rect class="cls-6" x="251.4" y="291.46" width="178.36" height="27.3" /><path class="cls-2" d="M296.76,308.78h4.65V310h-6.1V299.26h1.45Z" /><path class="cls-2" d="M305.61,302.29a4,4,0,0,1,1.51.27,3.38,3.38,0,0,1,1.14.79,3.52,3.52,0,0,1,.72,1.24,5.34,5.34,0,0,1,0,3.23,3.57,3.57,0,0,1-.72,1.23,3.38,3.38,0,0,1-1.14.79,4.33,4.33,0,0,1-3,0,3.2,3.2,0,0,1-1.14-.79,3.44,3.44,0,0,1-.73-1.23,5.15,5.15,0,0,1,0-3.23,3.4,3.4,0,0,1,.73-1.24,3.2,3.2,0,0,1,1.14-.79A4,4,0,0,1,305.61,302.29Zm0,6.78a1.94,1.94,0,0,0,1.68-.76,4.24,4.24,0,0,0,0-4.21,1.94,1.94,0,0,0-1.68-.76,2.33,2.33,0,0,0-1,.19,1.84,1.84,0,0,0-.7.57,2.35,2.35,0,0,0-.42.9,5.3,5.3,0,0,0,0,2.42,2.37,2.37,0,0,0,.42.89,1.81,1.81,0,0,0,.7.56A2.33,2.33,0,0,0,305.61,309.07Z" /><path class="cls-2" d="M316.06,303.76l-.12.13a.29.29,0,0,1-.17,0,.45.45,0,0,1-.25-.09,2.12,2.12,0,0,0-.33-.21,4,4,0,0,0-.49-.21,2.41,2.41,0,0,0-.71-.09,2.32,2.32,0,0,0-1,.2,1.83,1.83,0,0,0-.72.57,2.56,2.56,0,0,0-.43.91,4.4,4.4,0,0,0-.15,1.19,4.22,4.22,0,0,0,.16,1.23,2.52,2.52,0,0,0,.44.9,1.83,1.83,0,0,0,.69.55,2.14,2.14,0,0,0,.92.2,2.22,2.22,0,0,0,1.33-.38c.14-.1.26-.18.35-.26a.39.39,0,0,1,.27-.11.28.28,0,0,1,.25.12l.38.49a2.91,2.91,0,0,1-1.24.89,4.37,4.37,0,0,1-1.57.28,3.38,3.38,0,0,1-1.32-.26,3.08,3.08,0,0,1-1.06-.76,3.62,3.62,0,0,1-.71-1.23,4.74,4.74,0,0,1-.26-1.66,5.2,5.2,0,0,1,.23-1.56,3.7,3.7,0,0,1,.69-1.25,3.2,3.2,0,0,1,1.13-.81,3.83,3.83,0,0,1,1.53-.29,3.48,3.48,0,0,1,1.41.26,3.18,3.18,0,0,1,1.08.73Z" /><path class="cls-2" d="M323.46,310h-.59a.68.68,0,0,1-.31-.06.33.33,0,0,1-.16-.26l-.15-.7c-.2.18-.4.34-.59.48a3.67,3.67,0,0,1-.6.36,2.93,2.93,0,0,1-.67.22,3.84,3.84,0,0,1-.79.08,2.83,2.83,0,0,1-.83-.13,1.9,1.9,0,0,1-.67-.37,1.81,1.81,0,0,1-.45-.63,2.07,2.07,0,0,1-.17-.9,1.65,1.65,0,0,1,.25-.87,2.19,2.19,0,0,1,.79-.74A5.14,5.14,0,0,1,320,306a9.63,9.63,0,0,1,2.18-.21v-.59a2.07,2.07,0,0,0-.38-1.35,1.38,1.38,0,0,0-1.12-.46,2.2,2.2,0,0,0-.82.13,3.14,3.14,0,0,0-.58.27l-.42.28a.63.63,0,0,1-.35.13.36.36,0,0,1-.23-.08.46.46,0,0,1-.17-.17l-.23-.43a4.47,4.47,0,0,1,1.35-.91,4.25,4.25,0,0,1,1.62-.3,2.88,2.88,0,0,1,1.13.21,2.28,2.28,0,0,1,.83.59,2.6,2.6,0,0,1,.51.91,3.58,3.58,0,0,1,.17,1.16Zm-3.46-.82a3.14,3.14,0,0,0,.64-.07,2.41,2.41,0,0,0,.55-.21,2.6,2.6,0,0,0,.5-.31,4.6,4.6,0,0,0,.46-.43V306.6a8.8,8.8,0,0,0-1.57.12,4.79,4.79,0,0,0-1.05.3,1.58,1.58,0,0,0-.59.45,1,1,0,0,0-.18.57,1.18,1.18,0,0,0,.1.52.88.88,0,0,0,.26.36,1,1,0,0,0,.39.2A1.53,1.53,0,0,0,320,309.19Z" /><path class="cls-2" d="M327,299V310h-1.33V299Z" /><path class="cls-2" d="M337.9,306.5c.06.13.11.27.16.4l.15-.4c.06-.13.12-.26.19-.39l3.64-6.6c.07-.12.13-.19.2-.21a.8.8,0,0,1,.3,0h1.08V310h-1.28v-7.9c0-.11,0-.22,0-.34s0-.24,0-.37l-3.68,6.72a.58.58,0,0,1-.53.34H338a.57.57,0,0,1-.52-.34l-3.77-6.74c0,.13,0,.26,0,.38s0,.24,0,.35V310h-1.28V299.26h1.07a.86.86,0,0,1,.31,0c.07,0,.13.09.2.21l3.71,6.61A2.64,2.64,0,0,1,337.9,306.5Z" /><path class="cls-2" d="M349,302.29a3.21,3.21,0,0,1,1.26.23,2.81,2.81,0,0,1,1.65,1.72,4,4,0,0,1,.24,1.45.76.76,0,0,1-.07.41c0,.08-.13.11-.25.11H346.8a4.14,4.14,0,0,0,.2,1.25,2.54,2.54,0,0,0,.49.89,1.87,1.87,0,0,0,.75.53,2.55,2.55,0,0,0,1,.18,2.75,2.75,0,0,0,.86-.12,3.18,3.18,0,0,0,.63-.25c.17-.09.32-.17.44-.25a.55.55,0,0,1,.3-.11.31.31,0,0,1,.26.12l.37.49a2.48,2.48,0,0,1-.59.52,3.94,3.94,0,0,1-.74.37,5.34,5.34,0,0,1-.81.21,4.73,4.73,0,0,1-.83.07,3.87,3.87,0,0,1-1.46-.27,3,3,0,0,1-1.14-.78,3.42,3.42,0,0,1-.76-1.27,5.13,5.13,0,0,1-.27-1.74,4.22,4.22,0,0,1,.25-1.48,3.42,3.42,0,0,1,.7-1.2,3.08,3.08,0,0,1,1.11-.79A3.6,3.6,0,0,1,349,302.29Zm0,1a2.06,2.06,0,0,0-1.52.56,2.63,2.63,0,0,0-.69,1.55H351a2.53,2.53,0,0,0-.13-.85,1.9,1.9,0,0,0-.37-.67,1.8,1.8,0,0,0-.61-.44A2,2,0,0,0,349.06,303.27Z" /><path class="cls-2" d="M353.88,310v-7.6h.8a.34.34,0,0,1,.36.28l.09.78a4,4,0,0,1,.95-.85,2.19,2.19,0,0,1,1.21-.33,1.79,1.79,0,0,1,1.25.43,2.44,2.44,0,0,1,.68,1.15,2.61,2.61,0,0,1,.42-.71,2.3,2.3,0,0,1,.58-.5,2.33,2.33,0,0,1,.69-.28,3,3,0,0,1,.73-.09,2.76,2.76,0,0,1,1.07.19,2.07,2.07,0,0,1,.8.56,2.45,2.45,0,0,1,.5.9,4.2,4.2,0,0,1,.17,1.23V310h-1.34v-4.84a2.12,2.12,0,0,0-.38-1.36,1.45,1.45,0,0,0-1.14-.46,1.59,1.59,0,0,0-.62.12,1.66,1.66,0,0,0-.53.34,1.62,1.62,0,0,0-.35.57,2.11,2.11,0,0,0-.13.79V310h-1.34v-4.84a2.11,2.11,0,0,0-.37-1.37,1.29,1.29,0,0,0-1.07-.45,1.7,1.7,0,0,0-.92.27,3.06,3.06,0,0,0-.77.72V310Z" /><path class="cls-2" d="M369.27,302.29a4,4,0,0,1,1.51.27,3.38,3.38,0,0,1,1.14.79,3.52,3.52,0,0,1,.72,1.24,5.34,5.34,0,0,1,0,3.23,3.57,3.57,0,0,1-.72,1.23,3.38,3.38,0,0,1-1.14.79,4.33,4.33,0,0,1-3,0,3.33,3.33,0,0,1-1.15-.79,3.57,3.57,0,0,1-.72-1.23,5.15,5.15,0,0,1,0-3.23,3.52,3.52,0,0,1,.72-1.24,3.33,3.33,0,0,1,1.15-.79A4,4,0,0,1,369.27,302.29Zm0,6.78a1.94,1.94,0,0,0,1.68-.76,4.24,4.24,0,0,0,0-4.21,1.94,1.94,0,0,0-1.68-.76,2.33,2.33,0,0,0-1,.19,1.84,1.84,0,0,0-.7.57,2.35,2.35,0,0,0-.42.9,5.3,5.3,0,0,0,0,2.42,2.37,2.37,0,0,0,.42.89,1.81,1.81,0,0,0,.7.56A2.33,2.33,0,0,0,369.27,309.07Z" /><path class="cls-2" d="M374.54,310v-7.6h.76a.43.43,0,0,1,.3.08.48.48,0,0,1,.11.28l.09,1.19a3.53,3.53,0,0,1,1-1.24,2.11,2.11,0,0,1,1.34-.45,2.47,2.47,0,0,1,.57.07,2.55,2.55,0,0,1,.48.2l-.18,1a.22.22,0,0,1-.23.19,1.44,1.44,0,0,1-.32-.07,2,2,0,0,0-.61-.07,1.71,1.71,0,0,0-1.16.4,2.94,2.94,0,0,0-.79,1.18V310Z" /><path class="cls-2" d="M382.81,312.25a.74.74,0,0,1-.17.24.46.46,0,0,1-.31.09h-1l1.39-3-3.14-7.15h1.16a.46.46,0,0,1,.27.08.66.66,0,0,1,.14.2l2,4.78a2.19,2.19,0,0,1,.12.33,3.38,3.38,0,0,1,.08.34c0-.12.07-.23.11-.34a2.79,2.79,0,0,1,.12-.34l2-4.77a.35.35,0,0,1,.16-.2.34.34,0,0,1,.23-.08h1.07Z" /><rect class="cls-6" x="251.4" y="330.73" width="178.36" height="27.3" /><path class="cls-2" d="M288.45,339.1h1.2a.52.52,0,0,1,.33.1.46.46,0,0,1,.17.24l2.22,7.47c0,.14.07.28.11.44s.06.32.09.49c0-.17.07-.34.11-.49a2.55,2.55,0,0,1,.12-.44l2.52-7.47a.54.54,0,0,1,.18-.23.5.5,0,0,1,.32-.11h.42a.49.49,0,0,1,.32.1.46.46,0,0,1,.17.24l2.52,7.47a7.22,7.22,0,0,1,.24.9c0-.17.05-.33.08-.48a2.86,2.86,0,0,1,.1-.42l2.22-7.47a.49.49,0,0,1,.17-.24.51.51,0,0,1,.32-.1h1.13l-3.35,10.75h-1.3l-2.73-8.2q-.08-.24-.15-.54c0,.1-.05.2-.07.29a1.82,1.82,0,0,1-.07.25l-2.74,8.2h-1.3Z" /><path class="cls-2" d="M307.49,342.13a3.48,3.48,0,0,1,1.26.23,2.82,2.82,0,0,1,1,.66,2.91,2.91,0,0,1,.65,1.06,4.12,4.12,0,0,1,.24,1.45.81.81,0,0,1-.07.42.27.27,0,0,1-.25.1h-5.06a4.14,4.14,0,0,0,.2,1.25,2.45,2.45,0,0,0,.49.89,2,2,0,0,0,.75.54,2.76,2.76,0,0,0,1,.17,3.1,3.1,0,0,0,.86-.11,4.29,4.29,0,0,0,.63-.26c.17-.09.32-.17.44-.25a.62.62,0,0,1,.3-.11.31.31,0,0,1,.26.12l.37.49a2.27,2.27,0,0,1-.59.52,3.94,3.94,0,0,1-.74.37,5.34,5.34,0,0,1-.81.21,4.76,4.76,0,0,1-.84.07,4,4,0,0,1-1.45-.26,3.35,3.35,0,0,1-1.15-.78,3.67,3.67,0,0,1-.75-1.28,5.13,5.13,0,0,1-.27-1.74,4.46,4.46,0,0,1,.24-1.48,3.6,3.6,0,0,1,.71-1.2,3.2,3.2,0,0,1,1.11-.79A3.74,3.74,0,0,1,307.49,342.13Zm0,1a2,2,0,0,0-1.52.56,2.63,2.63,0,0,0-.69,1.55h4.13a2.57,2.57,0,0,0-.13-.85,1.9,1.9,0,0,0-.37-.67,1.65,1.65,0,0,0-.61-.43A1.92,1.92,0,0,0,307.52,343.11Z" /><path class="cls-2" d="M314.13,339.86a.91.91,0,0,1-.08.37,1.61,1.61,0,0,1-.21.3.79.79,0,0,1-.31.2.86.86,0,0,1-.36.08,1,1,0,0,1-.37-.08.83.83,0,0,1-.3-.2,1.21,1.21,0,0,1-.2-.3.91.91,0,0,1-.08-.37,1,1,0,0,1,.08-.37,1,1,0,0,1,.2-.3,1,1,0,0,1,.3-.21,1,1,0,0,1,.37-.08.86.86,0,0,1,.36.08,1,1,0,0,1,.31.21,1.34,1.34,0,0,1,.21.3A1,1,0,0,1,314.13,339.86Zm-.3,2.39v7.6h-1.34v-7.6Z" /><path class="cls-2" d="M318.74,342.12a3.8,3.8,0,0,1,.92.11,2.91,2.91,0,0,1,.79.32h2.06V343c0,.17-.1.27-.31.32l-.87.12a2.34,2.34,0,0,1,.26,1.09,2.26,2.26,0,0,1-.22,1,2.23,2.23,0,0,1-.59.77,2.62,2.62,0,0,1-.9.5,3.78,3.78,0,0,1-1.14.17,3.68,3.68,0,0,1-1-.13,1.32,1.32,0,0,0-.36.34.59.59,0,0,0-.12.34.49.49,0,0,0,.21.43,1.64,1.64,0,0,0,.58.2,4.92,4.92,0,0,0,.82.07h.93a4.9,4.9,0,0,1,.94.08,2.58,2.58,0,0,1,.81.27,1.54,1.54,0,0,1,.58.52,1.56,1.56,0,0,1,.22.87,2,2,0,0,1-.25,1,2.46,2.46,0,0,1-.7.82,3.63,3.63,0,0,1-1.11.58,4.94,4.94,0,0,1-1.5.21,5.82,5.82,0,0,1-1.46-.16,3.51,3.51,0,0,1-1-.44,1.82,1.82,0,0,1-.62-.65,1.48,1.48,0,0,1-.21-.76,1.36,1.36,0,0,1,.36-.95,2.25,2.25,0,0,1,1-.63,1.32,1.32,0,0,1-.52-.4,1.07,1.07,0,0,1-.19-.67,1,1,0,0,1,.06-.34,1.29,1.29,0,0,1,.18-.35,1.93,1.93,0,0,1,.31-.33,1.81,1.81,0,0,1,.42-.28,2.35,2.35,0,0,1-.88-.83,2.25,2.25,0,0,1-.32-1.22,2.37,2.37,0,0,1,.21-1,2.15,2.15,0,0,1,.6-.77,2.67,2.67,0,0,1,.91-.5A3.87,3.87,0,0,1,318.74,342.12Zm2.37,8.11a.63.63,0,0,0-.16-.46,1,1,0,0,0-.43-.28,3.17,3.17,0,0,0-.62-.14,5.8,5.8,0,0,0-.74,0h-.8a3.25,3.25,0,0,1-.77-.1,2.14,2.14,0,0,0-.69.49,1,1,0,0,0-.27.7.91.91,0,0,0,.13.48,1.22,1.22,0,0,0,.4.38,2.54,2.54,0,0,0,.68.26,4.57,4.57,0,0,0,1,.09,4,4,0,0,0,1-.1,2.59,2.59,0,0,0,.73-.28,1.46,1.46,0,0,0,.45-.44A1,1,0,0,0,321.11,350.23Zm-2.37-4.1a1.93,1.93,0,0,0,.71-.11,1.46,1.46,0,0,0,.53-.31,1.32,1.32,0,0,0,.31-.49,1.71,1.71,0,0,0,.11-.62,1.51,1.51,0,0,0-.43-1.11,2.05,2.05,0,0,0-2.46,0,1.5,1.5,0,0,0-.42,1.11,1.52,1.52,0,0,0,.11.62,1.34,1.34,0,0,0,.32.49,1.45,1.45,0,0,0,.51.31A2,2,0,0,0,318.74,346.13Z" /><path class="cls-2" d="M323.85,349.85V338.8h1.33v4.47a4.05,4.05,0,0,1,1.08-.83,2.87,2.87,0,0,1,1.36-.31,2.67,2.67,0,0,1,1.1.21,2,2,0,0,1,.8.58,2.63,2.63,0,0,1,.48.91,4,4,0,0,1,.17,1.18v4.84h-1.34V345a2.08,2.08,0,0,0-.39-1.34,1.46,1.46,0,0,0-1.2-.48,2.24,2.24,0,0,0-1.11.29,3.78,3.78,0,0,0-.95.77v5.6Z" /><path class="cls-2" d="M334.49,350a1.84,1.84,0,0,1-1.39-.51,2,2,0,0,1-.48-1.44v-4.65h-.91a.35.35,0,0,1-.21-.07.32.32,0,0,1-.08-.23v-.53l1.25-.16L333,340a.27.27,0,0,1,.1-.19.35.35,0,0,1,.21-.07H334v2.62h2.17v1H334v4.56a1,1,0,0,0,.23.71.81.81,0,0,0,.6.23,1.25,1.25,0,0,0,.36-.05,1.69,1.69,0,0,0,.27-.13l.19-.12a.24.24,0,0,1,.14-.06c.07,0,.13.05.19.13l.39.64a2.6,2.6,0,0,1-.84.5A2.65,2.65,0,0,1,334.49,350Z" /><path class="cls-2" d="M350.2,344.48a6.1,6.1,0,0,1-.38,2.19,5,5,0,0,1-1.08,1.7,4.93,4.93,0,0,1-1.68,1.09,5.71,5.71,0,0,1-2.15.39h-4V339.1h4a5.71,5.71,0,0,1,2.15.39,4.78,4.78,0,0,1,1.68,1.09,5,5,0,0,1,1.08,1.7A6.15,6.15,0,0,1,350.2,344.48Zm-1.49,0a5.39,5.39,0,0,0-.27-1.77,3.74,3.74,0,0,0-.77-1.32,3.27,3.27,0,0,0-1.2-.83,4.13,4.13,0,0,0-1.56-.28h-2.56v8.39h2.56a4.13,4.13,0,0,0,1.56-.29,3.25,3.25,0,0,0,1.2-.82,3.61,3.61,0,0,0,.77-1.31A5.39,5.39,0,0,0,348.71,344.48Z" /><path class="cls-2" d="M355,342.13a3.48,3.48,0,0,1,1.26.23,2.69,2.69,0,0,1,1,.66,3.08,3.08,0,0,1,.66,1.06,4.12,4.12,0,0,1,.24,1.45.93.93,0,0,1-.07.42.29.29,0,0,1-.26.1h-5.05a4.5,4.5,0,0,0,.19,1.25,2.46,2.46,0,0,0,.5.89,2,2,0,0,0,.75.54,2.72,2.72,0,0,0,1,.17,3.1,3.1,0,0,0,.86-.11,4.81,4.81,0,0,0,.63-.26c.17-.09.32-.17.44-.25a.58.58,0,0,1,.3-.11.29.29,0,0,1,.25.12l.38.49a2.27,2.27,0,0,1-.59.52,3.94,3.94,0,0,1-.74.37,5.18,5.18,0,0,1-.82.21,4.65,4.65,0,0,1-.83.07,4,4,0,0,1-1.45-.26,3.35,3.35,0,0,1-1.15-.78,3.67,3.67,0,0,1-.75-1.28,5.13,5.13,0,0,1-.27-1.74,4.46,4.46,0,0,1,.24-1.48,3.6,3.6,0,0,1,.71-1.2,3.2,3.2,0,0,1,1.11-.79A3.74,3.74,0,0,1,355,342.13Zm0,1a2.07,2.07,0,0,0-1.53.56,2.63,2.63,0,0,0-.69,1.55h4.14a2.86,2.86,0,0,0-.13-.85,1.92,1.92,0,0,0-.38-.67,1.54,1.54,0,0,0-.6-.43A1.92,1.92,0,0,0,355,343.11Z" /><path class="cls-2" d="M365,343.6a.77.77,0,0,1-.12.13.29.29,0,0,1-.17,0,.4.4,0,0,1-.24-.09l-.34-.21a2.91,2.91,0,0,0-.49-.2,2.09,2.09,0,0,0-.71-.1,2.32,2.32,0,0,0-1,.2,1.9,1.9,0,0,0-.72.57,2.74,2.74,0,0,0-.43.91,4.4,4.4,0,0,0-.15,1.19,4.22,4.22,0,0,0,.16,1.23,2.52,2.52,0,0,0,.44.9,1.91,1.91,0,0,0,.7.56,2.22,2.22,0,0,0,.92.19,2.22,2.22,0,0,0,1.32-.38,2.89,2.89,0,0,0,.35-.26.45.45,0,0,1,.27-.11.28.28,0,0,1,.25.12l.38.49a2.85,2.85,0,0,1-1.24.89,4.37,4.37,0,0,1-1.57.28,3.41,3.41,0,0,1-1.32-.26,3,3,0,0,1-1.06-.76,3.52,3.52,0,0,1-.71-1.23,5,5,0,0,1-.26-1.66,4.9,4.9,0,0,1,.24-1.56,3.27,3.27,0,0,1,.69-1.24,3.1,3.1,0,0,1,1.12-.82,3.83,3.83,0,0,1,1.53-.29,3.65,3.65,0,0,1,1.41.26,3.18,3.18,0,0,1,1.08.73Z" /><path class="cls-2" d="M369.91,342.13a3.78,3.78,0,0,1,1.5.28,3.05,3.05,0,0,1,1.14.78,3.32,3.32,0,0,1,.72,1.24,5.34,5.34,0,0,1,0,3.23,3.2,3.2,0,0,1-.72,1.23,3.07,3.07,0,0,1-1.14.79,4.3,4.3,0,0,1-3,0,3.2,3.2,0,0,1-1.15-.79,3.5,3.5,0,0,1-.73-1.23,5.34,5.34,0,0,1,0-3.23,3.63,3.63,0,0,1,.73-1.24,3.17,3.17,0,0,1,1.15-.78A3.75,3.75,0,0,1,369.91,342.13Zm0,6.78a2,2,0,0,0,1.68-.75,4.32,4.32,0,0,0,0-4.22,1.94,1.94,0,0,0-1.68-.76,2.33,2.33,0,0,0-1,.19,1.84,1.84,0,0,0-.7.57,2.35,2.35,0,0,0-.42.9,5.3,5.3,0,0,0,0,2.42,2.5,2.5,0,0,0,.42.9,1.89,1.89,0,0,0,.7.55A2.19,2.19,0,0,0,369.91,348.91Z" /><path class="cls-2" d="M380.52,349.85a.35.35,0,0,1-.36-.28l-.12-.92a4,4,0,0,1-1.11,1,3,3,0,0,1-1.44.35,2.68,2.68,0,0,1-1.18-.25,2.41,2.41,0,0,1-.91-.74,3.59,3.59,0,0,1-.58-1.21,6.56,6.56,0,0,1-.2-1.68,5.25,5.25,0,0,1,.22-1.56,4,4,0,0,1,.65-1.26,3.17,3.17,0,0,1,1-.83,3.11,3.11,0,0,1,1.38-.31,2.73,2.73,0,0,1,1.2.24,2.82,2.82,0,0,1,.88.67V338.8h1.34v11.05Zm-2.59-1a2.17,2.17,0,0,0,1.15-.3,3.22,3.22,0,0,0,.9-.84v-3.68a2,2,0,0,0-.8-.69,2.26,2.26,0,0,0-1-.2,1.92,1.92,0,0,0-1.63.75,3.56,3.56,0,0,0-.57,2.16,5.31,5.31,0,0,0,.13,1.28,2.48,2.48,0,0,0,.37.87,1.51,1.51,0,0,0,.61.49A1.94,1.94,0,0,0,377.93,348.87Z" /><path class="cls-2" d="M386.57,342.13a3.48,3.48,0,0,1,1.26.23,2.78,2.78,0,0,1,1,.66,3.08,3.08,0,0,1,.66,1.06,4.12,4.12,0,0,1,.24,1.45.93.93,0,0,1-.07.42.29.29,0,0,1-.26.1h-5.05a4.16,4.16,0,0,0,.19,1.25,2.46,2.46,0,0,0,.5.89,2,2,0,0,0,.75.54,2.7,2.7,0,0,0,1,.17,3.12,3.12,0,0,0,.87-.11,4.81,4.81,0,0,0,.63-.26c.17-.09.32-.17.44-.25a.58.58,0,0,1,.3-.11.29.29,0,0,1,.25.12l.38.49a2.45,2.45,0,0,1-.59.52,3.94,3.94,0,0,1-.74.37,5.47,5.47,0,0,1-.82.21,4.65,4.65,0,0,1-.83.07,4,4,0,0,1-1.45-.26,3.35,3.35,0,0,1-1.15-.78,3.67,3.67,0,0,1-.75-1.28,5.13,5.13,0,0,1-.27-1.74,4.46,4.46,0,0,1,.24-1.48,3.58,3.58,0,0,1,.7-1.2,3.34,3.34,0,0,1,1.12-.79A3.74,3.74,0,0,1,386.57,342.13Zm0,1a2.07,2.07,0,0,0-1.53.56,2.63,2.63,0,0,0-.69,1.55h4.14a2.86,2.86,0,0,0-.13-.85,1.92,1.92,0,0,0-.38-.67,1.54,1.54,0,0,0-.6-.43A1.92,1.92,0,0,0,386.6,343.11Z" /></g></svg>